<svg width="204" height="106" viewBox="0 0 204 106" fill="none" xmlns="http://www.w3.org/2000/svg">
<path d="M9.97875 31.4005C10.645 29.1924 11.6333 26.8263 12.9499 24.3023C13.0983 24.0212 13.1236 23.6895 13.0257 23.3862C11.3838 18.4298 11.7817 12.9206 15.6149 9.18037C15.779 9.01926 16.0537 9.09192 16.1201 9.30989C16.2085 9.60051 16.2716 9.97643 16.3095 10.4376C16.5558 13.7261 16.2432 17.0272 15.3686 20.3283C15.3559 20.3726 15.3812 20.4168 15.4222 20.4358C15.4665 20.4547 15.517 20.4358 15.5391 20.3947C16.7294 18.2276 18.1566 16.724 19.1544 14.4179C20.8721 10.4282 24.3579 7.13336 28.5511 6.01825C28.69 5.9835 28.8005 5.9835 28.8921 6.01825C29.0089 6.06247 29.0657 6.19199 29.0278 6.31519C27.3733 10.9525 23.5622 14.0799 19.5838 17.0272C19.5428 17.0588 19.508 17.0904 19.4765 17.1315L17.162 20.3062C17.1273 20.3568 17.1304 20.4263 17.1746 20.4673C17.2189 20.5116 17.2915 20.5179 17.3388 20.4768C19.7417 18.5656 22.4761 17.6717 25.5451 17.7917C25.8988 17.8043 26.104 18.1992 25.9177 18.4993C23.7517 21.9489 19.0944 24.2549 15.2265 25.0921C14.355 25.2816 14.0551 25.6923 13.7172 26.4409C12.8047 28.4564 11.8859 30.6613 10.9607 33.0621C10.9481 33.0937 10.9607 33.1285 10.9923 33.1474C11.0239 33.1664 11.0586 33.1569 11.0807 33.1285C11.4343 32.6894 11.8448 32.1587 12.3184 31.5363C13.9919 29.3251 17.2852 26.88 20.2374 26.9306C20.4079 26.9337 20.5184 27.1138 20.449 27.2654C18.3429 31.827 15.0591 35.0302 10.6071 36.8845C10.2282 37.0424 9.95033 37.3773 9.86823 37.7785C9.36304 40.3467 9.0536 43.1898 8.94309 46.3013C8.94309 46.3582 8.98414 46.4119 9.04097 46.4214C9.09781 46.4308 9.1578 46.3929 9.17043 46.3361C10.1398 42.7633 11.5228 39.9171 14.7087 37.9648C15.3023 37.6015 15.9622 37.3457 16.6821 37.194C16.8526 37.1593 17.001 37.3046 16.9694 37.4752C16.0001 42.5453 13.4836 46.6078 9.42303 49.653C9.25253 49.7825 9.1578 49.9847 9.16412 50.1995C9.24621 53.0678 9.60616 55.8319 10.2503 58.4791C10.2629 58.5328 10.3134 58.5676 10.3671 58.5644C10.4208 58.5613 10.4618 58.5139 10.465 58.4602C10.746 54.1956 11.6112 50.8692 15.2802 48.4305C15.4443 48.3199 15.6748 48.3957 15.7412 48.5821C16.319 50.1616 15.637 53.2763 15.4949 54.0787C14.9613 57.0544 13.6509 59.6069 11.5638 61.7234C11.3459 61.9477 11.2638 62.273 11.3523 62.5731C12.1606 65.3246 13.1552 67.9339 14.3329 70.4011C14.3519 70.4358 14.3898 70.4548 14.4308 70.4421C14.4718 70.4326 14.4939 70.3916 14.4845 70.3537C13.7993 66.6608 14.2508 61.8845 17.1147 59.1267C17.3388 58.9119 17.7146 59.0383 17.7619 59.3447C18.3745 63.3187 18.7818 66.1838 17.7935 69.8356C17.683 70.2526 17.3136 71.4783 16.6916 73.5189C16.5621 73.9454 16.6252 74.4003 16.8621 74.7762L20.6921 80.7972C20.7142 80.8288 20.7552 80.8414 20.79 80.8256C20.8247 80.8067 20.8405 80.7688 20.8247 80.7309C19.4922 77.3381 19.2712 73.0325 20.7047 69.4913C20.8247 69.1912 21.2415 69.1596 21.4057 69.4376C23.2812 72.5618 24.1337 75.9861 23.9601 79.7042C23.919 80.6045 23.8401 81.9565 23.717 83.7698C23.6885 84.1773 24.0138 84.7111 24.6831 85.3587C26.2587 86.8845 27.9448 88.3945 29.7446 89.8887C29.7951 89.9297 29.8646 89.9298 29.9088 89.8855C29.9593 89.8413 29.9625 89.775 29.9277 89.7213C27.6764 86.5402 26.8018 82.9169 27.2912 78.8576C27.3039 78.7376 27.4491 78.6838 27.5407 78.7628C31.5665 82.2408 33.1199 86.9319 33.1326 92.1189C33.1326 92.3906 33.2683 92.6433 33.4894 92.7949C36.0343 94.5229 38.8129 96.1087 41.8283 97.5429C41.9009 97.5744 41.9767 97.565 41.9704 97.5207V97.4702C41.9672 97.4291 41.9577 97.3975 41.9419 97.3881C38.5477 94.7977 36.1132 91.5693 35.9964 87.1499C35.9964 87.0235 36.1164 86.9351 36.2332 86.9793C36.7889 87.1909 37.3636 87.5163 37.9698 87.9586C41.3894 90.4573 43.7322 93.6731 44.6227 97.8651C44.7205 98.3294 45.0647 98.7053 45.5225 98.8443L54.6256 101.602C54.8971 101.684 55.055 101.969 54.9824 102.243L54.9413 102.408C54.815 102.818 54.3951 103.065 53.9751 102.973C50.8334 102.256 47.8338 101.416 44.97 100.449C44.2059 100.19 43.5459 100.386 42.7376 100.784C38.1435 103.052 32.7474 102.145 28.5163 99.5267C28.3332 99.4161 28.3332 99.1508 28.5163 99.0402C29.6657 98.3515 30.8876 97.9883 32.179 97.9567C35.3523 97.8809 38.1751 98.1178 40.6537 98.6674C40.7105 98.6801 40.7705 98.6485 40.7895 98.5916L40.821 98.4842C40.821 98.4842 40.821 98.4558 40.8084 98.4526C38.1972 97.3375 35.6238 95.9286 33.0852 94.2228C32.82 94.0427 32.4948 93.9795 32.1822 94.049C27.4144 95.101 22.956 94.286 18.8134 91.5977C18.0587 91.1049 17.443 90.5426 16.9789 89.9045C16.8494 89.7307 16.9473 89.478 17.162 89.4338C20.6795 88.7136 24.0548 89.1842 27.2912 90.849C27.708 91.0638 28.5574 91.5061 29.8456 92.1789C29.874 92.1916 29.8993 92.1821 29.9183 92.16C29.9309 92.1379 29.9309 92.1063 29.9088 92.0873L22.8771 85.8357C22.716 85.6936 22.5045 85.6083 22.2898 85.602C16.9157 85.4503 11.3554 82.3388 8.44421 77.752C8.34001 77.594 8.45684 77.3855 8.64629 77.3855C12.9152 77.4045 16.0727 79.3188 19.3028 81.9376C19.3344 81.966 19.3849 81.966 19.4133 81.9344C19.4449 81.906 19.448 81.8618 19.4259 81.827L15.037 74.9278C15.0086 74.8836 14.9644 74.852 14.9171 74.8331C13.853 74.4887 11.8069 73.9833 10.5313 73.241C7.28857 71.3487 3.7143 67.6496 3.00702 63.7704C2.97229 63.5651 3.17121 63.3976 3.36382 63.4734C6.92862 64.8697 9.71983 67.2642 12.2837 70.2336C12.3121 70.2652 12.3563 70.2747 12.3911 70.2526C12.4258 70.2305 12.4416 70.1894 12.4258 70.1483L9.56827 62.7911C9.42934 62.4342 9.17043 62.1372 8.8389 61.954C3.95427 59.2278 0.793629 55.2507 0.00110029 49.6246C-0.0115296 49.5077 0.0863523 49.4129 0.203179 49.4319C2.88388 49.8962 5.27725 52.7804 6.856 55.3612C7.78114 56.8744 8.3558 57.8979 8.57998 58.4349C8.62103 58.5328 8.72838 58.5771 8.82627 58.5391H8.83574C8.93046 58.4981 8.97467 58.3907 8.93993 58.2927C7.97374 55.7498 7.86955 53.0552 7.70536 49.9752C7.68641 49.6182 7.50328 49.2865 7.20963 49.0812C6.21187 48.3926 5.48565 47.9187 4.86047 47.0658C2.25554 43.553 1.25146 39.4843 1.8356 34.869C1.8798 34.5121 2.30922 34.3541 2.57761 34.6005C5.22989 37.0361 6.70128 41.168 7.2791 44.6176C7.28857 44.6808 7.34541 44.7282 7.40856 44.725C7.47486 44.725 7.52854 44.6745 7.53801 44.6144L8.56735 36.9192C8.62103 36.5085 8.51052 36.0947 8.25476 35.763C5.15095 31.7891 5.01518 25.5312 7.01071 21.0549C7.1749 20.679 7.70536 20.6569 7.90112 21.0138C9.22095 23.3957 9.86508 26.0271 9.82403 28.9049C9.80509 30.3107 9.80509 31.1352 9.82719 31.3816C9.83035 31.4668 9.95349 31.4763 9.97875 31.3942V31.4005Z" fill="#A7AC50"/>
<path d="M185.269 82.0934C186.261 81.4183 187.467 80.6387 188.898 79.7482C191.274 78.265 193.783 77.5265 196.43 77.5202C196.627 77.5202 196.744 77.7357 196.646 77.9005C195.812 79.2791 194.798 80.4517 193.612 81.4088C191.522 83.0917 188.662 85.0407 186.239 85.3069C185.425 85.3957 184.359 85.4464 183.058 85.4495C182.575 85.4527 182.117 85.6555 181.786 86.0073C179.935 88.0071 177.96 89.8104 175.873 91.4235C175.819 91.4679 175.81 91.5439 175.845 91.5978L175.911 91.6865C175.911 91.6865 175.934 91.6992 175.943 91.696C179.432 89.8516 183.507 88.2416 187.193 89.3382C187.591 89.4554 187.711 89.953 187.412 90.2414C184.4 93.138 180.746 94.5356 176.442 94.4406C175.609 94.4216 174.521 94.355 173.189 94.2377C172.626 94.187 172.063 94.2948 171.56 94.5483L164.417 98.1675C164.417 98.1675 164.394 98.1961 164.397 98.2087L164.442 98.3197C164.471 98.3926 164.55 98.4306 164.623 98.4084C168.17 97.4069 172.813 97.1692 176.058 99.0518C176.325 99.2039 176.318 99.5873 176.048 99.7331C171.159 102.386 166.242 102.652 161.293 100.532C160.733 100.294 160.104 100.266 159.531 100.465C156.872 101.378 153.641 102.218 149.843 102.978C149.41 103.064 149.01 102.741 149 102.303V102.272C148.997 101.796 149.328 101.378 149.798 101.28C153.237 100.548 156.265 99.7173 158.876 98.7824C159.786 98.4559 160.129 98.1485 160.314 97.1534C161.153 92.65 164.986 88.6948 168.873 86.4257C169.016 86.3401 169.2 86.4478 169.197 86.6158C169.076 91.2048 166.341 94.5008 162.775 97.2168C162.721 97.2612 162.712 97.3372 162.747 97.3911L162.813 97.4798C162.813 97.4798 162.836 97.4925 162.845 97.4893C165.387 96.0474 168.583 94.6973 171.331 92.7958C171.525 92.6626 171.659 92.4503 171.697 92.2158C171.827 91.3981 171.748 90.3174 171.818 89.5346C172.2 85.4527 174.032 82.03 177.301 79.2791C177.463 79.1428 177.712 79.2474 177.724 79.4534C177.982 82.9079 176.993 86.1626 175.65 89.2938C175.6 89.411 175.746 89.5093 175.841 89.4237C177.667 87.7726 179.146 86.3559 180.266 85.177C180.781 84.6382 181.105 84.1945 181.236 83.8396C181.287 83.7001 181.302 83.5512 181.29 83.4054C181.217 82.5846 181.163 81.187 181.124 79.2189C181.058 76.0022 182.047 71.5716 184.483 69.2898C184.633 69.1472 184.884 69.2264 184.928 69.4292C185.727 73.0073 185.6 76.5726 184.559 80.1253C184.537 80.1982 184.572 80.2774 184.645 80.3091C184.712 80.3408 184.795 80.3123 184.836 80.2521C186.089 78.2586 187.148 76.5251 188.017 75.0482C188.405 74.3986 188.602 73.8851 188.612 73.5175C188.615 73.3654 188.589 73.2133 188.529 73.0675C187.537 70.643 187.034 68.9824 187.009 68.0792C186.932 65.1381 186.996 62.8024 187.203 61.0784C187.288 60.3558 187.514 59.6016 187.874 58.8188C187.972 58.6064 188.265 58.5747 188.405 58.7649C191.169 62.457 191.197 66.802 190.466 71.1596C190.456 71.223 190.494 71.2864 190.552 71.3022C190.615 71.3244 190.682 71.2991 190.711 71.2389C192.091 68.469 193.001 65.6674 193.446 62.8405C193.586 61.9373 193.478 61.4302 192.73 60.6791C190.307 58.2325 188.968 55.133 188.71 51.3807C188.697 51.162 188.653 50.151 188.583 48.3572C188.573 48.1924 188.748 48.0783 188.898 48.1607C192.403 50.1003 193.662 53.9635 193.949 57.7349C193.952 57.7698 193.98 57.8014 194.022 57.8014C194.057 57.8046 194.089 57.7793 194.098 57.7444L195.523 50.6771C195.641 50.1035 195.405 49.514 194.928 49.1686C191.092 46.4304 188.726 42.5354 187.829 37.4932C187.794 37.2904 187.979 37.1193 188.182 37.17C191.897 38.0985 194.699 42.3611 195.488 45.8726C195.498 45.9233 195.542 45.955 195.593 45.9455C195.644 45.9423 195.679 45.8948 195.679 45.8472C195.603 43.5717 195.412 41.1948 195.103 38.726C195.027 38.089 194.887 37.5059 194.693 36.9798C194.62 36.7833 194.467 36.6217 194.27 36.5456C193.351 36.178 191.916 35.7723 190.972 35.1448C188.233 33.313 185.148 30.4513 184.031 27.1997C183.974 27.0349 184.108 26.8637 184.289 26.8764C188.332 27.2092 191.099 29.7952 193.459 32.8852C193.468 32.8947 193.478 32.8979 193.491 32.8884C193.5 32.8852 193.503 32.8694 193.5 32.8598L190.666 25.5992C190.536 25.2569 190.23 25.0097 189.868 24.9527C187.839 24.6263 185.749 23.9417 183.596 22.9149C181.264 21.8057 179.54 20.1165 178.421 17.8537C178.31 17.635 178.478 17.372 178.726 17.3815C182.117 17.5399 185.059 18.6618 187.549 20.7503C187.584 20.7757 187.635 20.7757 187.667 20.7503C187.699 20.7186 187.708 20.6679 187.68 20.6331L184.903 16.7128C184.862 16.6557 184.817 16.6082 184.76 16.5733C181.894 14.7732 179.496 12.5326 177.572 9.85146C176.811 8.79294 176.264 7.64252 175.93 6.40337C175.864 6.15617 176.096 5.93116 176.341 6.00722C179.369 6.9453 181.802 8.67885 183.64 11.2079C183.996 11.6959 184.655 12.9097 185.606 14.8398C186.264 16.174 187.009 17.3466 187.832 18.3544C188.3 18.928 188.513 19.7679 189.063 20.3352C189.14 20.4112 189.267 20.3383 189.238 20.2369C188.43 17.3846 188.052 14.3707 188.093 11.1984C188.106 10.3807 188.224 9.6613 188.446 9.04331C188.5 8.89119 188.685 8.82464 188.825 8.90703C189.257 9.16691 189.636 9.54087 189.963 10.0289C192.556 13.9175 192.667 18.8583 191.388 23.1716C191.325 23.3839 191.347 23.6058 191.452 23.8054C192.727 26.1728 193.774 28.6765 194.588 31.326C194.601 31.3703 194.645 31.3988 194.696 31.3925C194.741 31.383 194.779 31.3418 194.772 31.2943C194.607 27.7828 194.76 24.1984 196.43 21.1306C196.55 20.9025 196.697 20.7567 196.859 20.6996C196.948 20.6679 197.053 20.7091 197.088 20.7979C198.36 23.815 198.831 26.9715 198.503 30.2643C198.29 32.3971 197.132 34.0451 195.965 35.7565C195.79 36.0164 195.727 36.3396 195.79 36.6502C196.436 39.8067 196.709 43.0171 196.604 46.2909C196.601 46.3543 196.649 46.4082 196.713 46.4177H196.818C196.891 46.4177 196.948 46.3638 196.954 46.2909L197.145 43.0266C197.148 42.9759 197.155 42.9316 197.167 42.8872C197.956 39.9684 199.407 36.5615 201.76 34.5902C202.062 34.343 202.517 34.5395 202.536 34.9325C202.765 39.7814 201.56 45.4321 197.594 48.6013C197.164 48.9435 196.903 49.4538 196.878 50.002C196.719 53.092 196.261 56.0869 195.498 58.9836C195.475 59.0786 195.529 59.1674 195.618 59.1959L195.73 59.2308C195.752 59.2403 195.774 59.2308 195.784 59.2086C197.085 56.2771 198.844 53.653 201.067 51.3426C201.773 50.6074 202.568 50.0591 203.446 49.6978C203.729 49.5805 204.038 49.8151 203.996 50.1193C203.36 55.0062 201 58.8219 196.907 61.5665C196.614 61.7629 196.204 61.9436 195.682 62.1084C195.221 62.2478 194.881 62.6281 194.782 63.0972C194.2 65.8861 193.386 68.3327 192.327 70.4307C192.304 70.4719 192.323 70.5258 192.362 70.548C192.403 70.5765 192.457 70.5606 192.482 70.5258C194.419 67.9746 198.783 63.7691 202.139 63.5662C202.377 63.5535 202.549 63.7944 202.45 64.0099C200.094 69.1884 196.15 73.3083 190.612 74.6331C190.145 74.744 189.75 75.0546 189.528 75.4761C188.335 77.7389 186.881 79.9098 185.18 81.9888C185.157 82.0141 185.161 82.0522 185.183 82.0775C185.205 82.0997 185.246 82.106 185.272 82.087L185.269 82.0934Z" fill="#A7AC50"/>
<path d="M56.2786 5.71C55.9893 6.13 55.644 6.564 55.2426 7.012C54.8413 7.46 54.3933 7.90333 53.8986 8.342C53.4133 8.78067 52.8953 9.20067 52.3446 9.602C51.8033 9.994 51.2386 10.3533 50.6506 10.68C50.5853 10.5493 50.492 10.4 50.3706 10.232C50.2493 10.064 50.1186 9.90067 49.9786 9.742C49.8386 9.58333 49.708 9.44333 49.5866 9.322C50.3986 8.902 51.178 8.398 51.9246 7.81C52.6713 7.21267 53.3386 6.58267 53.9266 5.92C54.524 5.25733 54.9953 4.632 55.3406 4.044H57.0766C57.4593 4.59467 57.884 5.12667 58.3506 5.64C58.8173 6.15333 59.312 6.62933 59.8346 7.068C60.3573 7.50667 60.8986 7.90333 61.4586 8.258C62.0186 8.61267 62.5833 8.91133 63.1526 9.154C62.938 9.36867 62.7326 9.61133 62.5366 9.882C62.35 10.1433 62.1773 10.4047 62.0186 10.666C61.468 10.358 60.9173 10.0127 60.3666 9.63C59.8253 9.238 59.298 8.82267 58.7846 8.384C58.2713 7.94533 57.8 7.49733 57.3706 7.04C56.9413 6.58267 56.5773 6.13933 56.2786 5.71ZM56.3766 11.044H61.0666V12.542H56.3766V11.044ZM50.3706 15.356H62.3406V16.882H50.3706V15.356ZM55.5366 8.048H57.3146V16.168H55.5366V8.048ZM51.8966 10.47H53.5486V16.14H51.8966V10.47ZM64.1326 12.668H76.6206V14.054H64.1326V12.668ZM64.1746 6.396H76.5786V7.768H64.1746V6.396ZM64.7486 8.902H76.0326V10.218H64.7486V8.902ZM65.4346 10.834H75.3886V12.052H65.4346V10.834ZM69.4946 9.56H71.1606V17.26H69.4946V9.56ZM68.2766 4.086H69.8446V7.054H68.2766V4.086ZM70.8806 4.086H72.4626V6.956H70.8806V4.086ZM69.1866 13.284L70.5166 13.886C70.078 14.3713 69.546 14.824 68.9206 15.244C68.3046 15.6547 67.642 16.014 66.9326 16.322C66.2233 16.6393 65.5093 16.896 64.7906 17.092C64.716 16.952 64.6133 16.7933 64.4826 16.616C64.3613 16.448 64.2306 16.28 64.0906 16.112C63.96 15.944 63.834 15.804 63.7126 15.692C64.4126 15.5427 65.108 15.3513 65.7986 15.118C66.4986 14.8847 67.1426 14.6093 67.7306 14.292C68.3186 13.9747 68.804 13.6387 69.1866 13.284ZM71.4966 13.242C71.786 13.522 72.1313 13.788 72.5326 14.04C72.934 14.2827 73.3726 14.5067 73.8486 14.712C74.334 14.908 74.8426 15.0807 75.3746 15.23C75.916 15.3793 76.462 15.496 77.0126 15.58C76.882 15.7107 76.742 15.86 76.5926 16.028C76.4526 16.2053 76.3173 16.3873 76.1866 16.574C76.0653 16.77 75.9626 16.9473 75.8786 17.106C75.3186 16.966 74.768 16.784 74.2266 16.56C73.6946 16.3453 73.186 16.098 72.7006 15.818C72.2153 15.538 71.758 15.2253 71.3286 14.88C70.8993 14.5347 70.5213 14.166 70.1946 13.774L71.4966 13.242ZM74.1006 4.212L75.8506 4.632C75.636 5.01467 75.4166 5.388 75.1926 5.752C74.9686 6.10667 74.7633 6.41 74.5766 6.662L73.2046 6.242C73.3166 6.05533 73.4286 5.84533 73.5406 5.612C73.6526 5.36933 73.7553 5.12667 73.8486 4.884C73.9513 4.632 74.0353 4.408 74.1006 4.212ZM72.2526 7.208L74.0306 7.628C73.8346 7.95467 73.648 8.272 73.4706 8.58C73.2933 8.87867 73.1346 9.13533 72.9946 9.35L71.5666 8.958C71.688 8.69667 71.814 8.40733 71.9446 8.09C72.0753 7.76333 72.178 7.46933 72.2526 7.208ZM65.1686 4.66L66.6106 4.17C66.816 4.45933 67.0213 4.79533 67.2266 5.178C67.432 5.55133 67.5813 5.87333 67.6746 6.144L66.1626 6.704C66.088 6.424 65.9526 6.09267 65.7566 5.71C65.5606 5.32733 65.3646 4.97733 65.1686 4.66ZM66.9466 7.796L68.5846 7.53C68.706 7.726 68.8226 7.95 68.9346 8.202C69.056 8.44467 69.1446 8.65933 69.2006 8.846L67.4926 9.14C67.446 8.96267 67.3713 8.74333 67.2686 8.482C67.166 8.22067 67.0586 7.992 66.9466 7.796ZM79.9806 5.43C80.2046 5.46733 80.452 5.49533 80.7226 5.514C80.9933 5.53267 81.2453 5.542 81.4786 5.542C81.656 5.542 81.8986 5.542 82.2066 5.542C82.5146 5.542 82.8553 5.542 83.2286 5.542C83.602 5.542 83.9706 5.542 84.3346 5.542C84.708 5.542 85.0486 5.542 85.3566 5.542C85.6646 5.542 85.898 5.542 86.0566 5.542C86.2993 5.542 86.5513 5.53267 86.8126 5.514C87.074 5.49533 87.326 5.46733 87.5686 5.43V7.236C87.326 7.21733 87.074 7.208 86.8126 7.208C86.5513 7.19867 86.2993 7.194 86.0566 7.194C85.898 7.194 85.6646 7.194 85.3566 7.194C85.0486 7.194 84.708 7.194 84.3346 7.194C83.9706 7.194 83.602 7.194 83.2286 7.194C82.8646 7.194 82.524 7.194 82.2066 7.194C81.8986 7.194 81.656 7.194 81.4786 7.194C81.236 7.194 80.9793 7.19867 80.7086 7.208C80.438 7.208 80.1953 7.21733 79.9806 7.236V5.43ZM78.3566 9.014C78.562 9.042 78.7813 9.06533 79.0146 9.084C79.2573 9.09333 79.486 9.098 79.7006 9.098C79.822 9.098 80.0646 9.098 80.4286 9.098C80.7926 9.098 81.2313 9.098 81.7446 9.098C82.2673 9.098 82.8226 9.098 83.4106 9.098C83.9986 9.098 84.5866 9.098 85.1746 9.098C85.772 9.098 86.3273 9.098 86.8406 9.098C87.354 9.098 87.788 9.098 88.1426 9.098C88.5066 9.098 88.7493 9.098 88.8706 9.098C89.02 9.098 89.2206 9.09333 89.4726 9.084C89.734 9.06533 89.958 9.042 90.1446 9.014V10.834C89.9766 10.8153 89.7713 10.806 89.5286 10.806C89.286 10.7967 89.0666 10.792 88.8706 10.792C88.7493 10.792 88.5066 10.792 88.1426 10.792C87.788 10.792 87.354 10.792 86.8406 10.792C86.3273 10.792 85.772 10.792 85.1746 10.792C84.5866 10.792 83.9986 10.792 83.4106 10.792C82.8226 10.792 82.2673 10.792 81.7446 10.792C81.2313 10.792 80.7926 10.792 80.4286 10.792C80.0646 10.792 79.822 10.792 79.7006 10.792C79.4953 10.792 79.2666 10.7967 79.0146 10.806C78.772 10.8153 78.5526 10.8293 78.3566 10.848V9.014ZM85.5246 9.994C85.5246 10.8993 85.4453 11.716 85.2866 12.444C85.128 13.1627 84.8993 13.8113 84.6006 14.39C84.442 14.7073 84.218 15.034 83.9286 15.37C83.6486 15.706 83.3266 16.0233 82.9626 16.322C82.5986 16.6207 82.2066 16.8727 81.7866 17.078L80.1486 15.888C80.6433 15.7013 81.1193 15.426 81.5766 15.062C82.034 14.6887 82.4026 14.2967 82.6826 13.886C83.0373 13.354 83.2753 12.7613 83.3966 12.108C83.518 11.4547 83.5786 10.75 83.5786 9.994H85.5246ZM88.4086 4.464C88.53 4.632 88.656 4.83267 88.7866 5.066C88.9266 5.29933 89.0573 5.53267 89.1786 5.766C89.3093 5.99933 89.4213 6.20467 89.5146 6.382L88.3946 6.872C88.2453 6.58267 88.068 6.256 87.8626 5.892C87.6666 5.51867 87.4753 5.19667 87.2886 4.926L88.4086 4.464ZM90.0606 3.834C90.182 4.01133 90.3126 4.22133 90.4526 4.464C90.5926 4.69733 90.728 4.93067 90.8586 5.164C90.9986 5.388 91.1106 5.57933 91.1946 5.738L90.0746 6.228C89.9346 5.92933 89.7573 5.598 89.5426 5.234C89.3373 4.87 89.1413 4.55733 88.9546 4.296L90.0606 3.834ZM92.6366 9.518C92.8046 9.52733 93.0193 9.54133 93.2806 9.56C93.542 9.56933 93.8126 9.57867 94.0926 9.588C94.382 9.59733 94.648 9.602 94.8906 9.602C95.124 9.602 95.4133 9.602 95.7586 9.602C96.104 9.602 96.4773 9.602 96.8786 9.602C97.2893 9.602 97.7093 9.602 98.1386 9.602C98.5773 9.602 99.0113 9.602 99.4406 9.602C99.87 9.602 100.276 9.602 100.659 9.602C101.041 9.602 101.382 9.602 101.681 9.602C101.989 9.602 102.231 9.602 102.409 9.602C102.735 9.602 103.043 9.59267 103.333 9.574C103.622 9.546 103.86 9.52733 104.047 9.518V11.716C103.888 11.7067 103.65 11.6927 103.333 11.674C103.015 11.6553 102.707 11.646 102.409 11.646C102.231 11.646 101.989 11.646 101.681 11.646C101.373 11.646 101.027 11.646 100.645 11.646C100.262 11.646 99.856 11.646 99.4266 11.646C99.0066 11.646 98.5773 11.646 98.1386 11.646C97.7 11.646 97.2753 11.646 96.8646 11.646C96.4633 11.646 96.09 11.646 95.7446 11.646C95.4086 11.646 95.124 11.646 94.8906 11.646C94.4893 11.646 94.0786 11.6553 93.6586 11.674C93.2386 11.6833 92.898 11.6973 92.6366 11.716V9.518ZM111.355 9.448C111.784 9.69067 112.251 9.98 112.755 10.316C113.268 10.6427 113.786 10.9833 114.309 11.338C114.831 11.6927 115.321 12.038 115.779 12.374C116.245 12.71 116.637 13.0087 116.955 13.27L115.625 14.852C115.317 14.572 114.934 14.25 114.477 13.886C114.029 13.5127 113.543 13.1347 113.021 12.752C112.498 12.36 111.98 11.9867 111.467 11.632C110.963 11.2773 110.51 10.974 110.109 10.722L111.355 9.448ZM117.935 7.068C117.851 7.19867 117.767 7.35267 117.683 7.53C117.599 7.70733 117.529 7.88467 117.473 8.062C117.333 8.49133 117.141 8.972 116.899 9.504C116.665 10.0267 116.385 10.5633 116.059 11.114C115.732 11.6553 115.359 12.1873 114.939 12.71C114.276 13.5313 113.478 14.3107 112.545 15.048C111.621 15.7853 110.487 16.4107 109.143 16.924L107.519 15.51C108.499 15.2113 109.348 14.8567 110.067 14.446C110.785 14.0353 111.406 13.5967 111.929 13.13C112.461 12.6633 112.923 12.1967 113.315 11.73C113.632 11.366 113.931 10.96 114.211 10.512C114.5 10.0547 114.747 9.602 114.953 9.154C115.167 8.69667 115.317 8.29067 115.401 7.936H110.669L111.313 6.34H115.289C115.513 6.34 115.732 6.326 115.947 6.298C116.171 6.27 116.357 6.23267 116.507 6.186L117.935 7.068ZM113.315 4.912C113.147 5.15467 112.979 5.416 112.811 5.696C112.652 5.976 112.531 6.19067 112.447 6.34C112.129 6.9 111.728 7.49733 111.243 8.132C110.757 8.75733 110.211 9.36867 109.605 9.966C109.007 10.5633 108.373 11.0953 107.701 11.562L106.189 10.4C107.01 9.88667 107.705 9.35 108.275 8.79C108.853 8.22067 109.334 7.67467 109.717 7.152C110.099 6.62 110.407 6.14867 110.641 5.738C110.753 5.57 110.869 5.346 110.991 5.066C111.121 4.77667 111.219 4.51533 111.285 4.282L113.315 4.912ZM129.275 6.298C129.405 6.48467 129.55 6.71333 129.709 6.984C129.877 7.25467 130.04 7.52533 130.199 7.796C130.357 8.06667 130.488 8.314 130.591 8.538L129.331 9.084C129.2 8.78533 129.065 8.51 128.925 8.258C128.794 7.99667 128.659 7.74933 128.519 7.516C128.388 7.27333 128.234 7.03533 128.057 6.802L129.275 6.298ZM131.151 5.528C131.291 5.70533 131.445 5.92933 131.613 6.2C131.781 6.46133 131.944 6.72733 132.103 6.998C132.271 7.25933 132.406 7.49733 132.509 7.712L131.291 8.3C131.141 8.00133 130.997 7.73067 130.857 7.488C130.717 7.236 130.572 6.998 130.423 6.774C130.283 6.54067 130.124 6.30733 129.947 6.074L131.151 5.528ZM119.839 12.01C120.053 11.8327 120.245 11.6647 120.413 11.506C120.581 11.3473 120.777 11.1607 121.001 10.946C121.159 10.778 121.341 10.5773 121.547 10.344C121.752 10.1107 121.971 9.84933 122.205 9.56C122.447 9.27067 122.695 8.97667 122.947 8.678C123.199 8.37 123.446 8.07133 123.689 7.782C124.099 7.28733 124.524 7.01667 124.963 6.97C125.401 6.914 125.891 7.14733 126.433 7.67C126.75 7.95933 127.072 8.272 127.399 8.608C127.735 8.944 128.061 9.28 128.379 9.616C128.705 9.952 129.009 10.274 129.289 10.582C129.606 10.9087 129.961 11.2867 130.353 11.716C130.754 12.1453 131.16 12.584 131.571 13.032C131.991 13.48 132.378 13.8953 132.733 14.278L131.193 15.93C130.885 15.538 130.553 15.1273 130.199 14.698C129.844 14.2687 129.499 13.8533 129.163 13.452C128.827 13.0413 128.519 12.6773 128.239 12.36C128.043 12.1173 127.819 11.8607 127.567 11.59C127.324 11.31 127.081 11.0347 126.839 10.764C126.596 10.4933 126.372 10.2507 126.167 10.036C125.961 9.82133 125.798 9.64867 125.677 9.518C125.443 9.294 125.243 9.19133 125.075 9.21C124.916 9.21933 124.734 9.35 124.529 9.602C124.398 9.77933 124.239 9.98933 124.053 10.232C123.866 10.4747 123.675 10.7313 123.479 11.002C123.283 11.2727 123.091 11.534 122.905 11.786C122.727 12.038 122.569 12.2573 122.429 12.444C122.27 12.668 122.111 12.8967 121.953 13.13C121.794 13.354 121.649 13.5593 121.519 13.746L119.839 12.01ZM134.637 9.518C134.805 9.52733 135.019 9.54133 135.281 9.56C135.542 9.56933 135.813 9.57867 136.093 9.588C136.382 9.59733 136.648 9.602 136.891 9.602C137.124 9.602 137.413 9.602 137.759 9.602C138.104 9.602 138.477 9.602 138.879 9.602C139.289 9.602 139.709 9.602 140.139 9.602C140.577 9.602 141.011 9.602 141.441 9.602C141.87 9.602 142.276 9.602 142.659 9.602C143.041 9.602 143.382 9.602 143.681 9.602C143.989 9.602 144.231 9.602 144.409 9.602C144.735 9.602 145.043 9.59267 145.333 9.574C145.622 9.546 145.86 9.52733 146.047 9.518V11.716C145.888 11.7067 145.65 11.6927 145.333 11.674C145.015 11.6553 144.707 11.646 144.409 11.646C144.231 11.646 143.989 11.646 143.681 11.646C143.373 11.646 143.027 11.646 142.645 11.646C142.262 11.646 141.856 11.646 141.427 11.646C141.007 11.646 140.577 11.646 140.139 11.646C139.7 11.646 139.275 11.646 138.865 11.646C138.463 11.646 138.09 11.646 137.745 11.646C137.409 11.646 137.124 11.646 136.891 11.646C136.489 11.646 136.079 11.6553 135.659 11.674C135.239 11.6833 134.898 11.6973 134.637 11.716V9.518ZM158.327 6.508C158.271 6.592 158.187 6.72267 158.075 6.9C157.973 7.07733 157.893 7.24067 157.837 7.39C157.641 7.82867 157.399 8.31867 157.109 8.86C156.829 9.40133 156.507 9.94733 156.143 10.498C155.789 11.0393 155.411 11.548 155.009 12.024C154.487 12.612 153.908 13.1953 153.273 13.774C152.648 14.3433 151.985 14.8707 151.285 15.356C150.595 15.832 149.885 16.2427 149.157 16.588L147.715 15.076C148.471 14.7867 149.204 14.4227 149.913 13.984C150.623 13.5453 151.281 13.0693 151.887 12.556C152.494 12.0427 153.017 11.5433 153.455 11.058C153.763 10.7033 154.053 10.3253 154.323 9.924C154.603 9.52267 154.851 9.126 155.065 8.734C155.28 8.33267 155.439 7.964 155.541 7.628C155.448 7.628 155.28 7.628 155.037 7.628C154.795 7.628 154.51 7.628 154.183 7.628C153.866 7.628 153.53 7.628 153.175 7.628C152.821 7.628 152.48 7.628 152.153 7.628C151.836 7.628 151.556 7.628 151.313 7.628C151.071 7.628 150.898 7.628 150.795 7.628C150.599 7.628 150.394 7.63733 150.179 7.656C149.965 7.66533 149.759 7.67933 149.563 7.698C149.377 7.70733 149.232 7.71667 149.129 7.726V5.738C149.269 5.74733 149.442 5.76133 149.647 5.78C149.853 5.79867 150.058 5.81267 150.263 5.822C150.478 5.83133 150.655 5.836 150.795 5.836C150.917 5.836 151.108 5.836 151.369 5.836C151.631 5.836 151.929 5.836 152.265 5.836C152.601 5.836 152.947 5.836 153.301 5.836C153.665 5.836 154.011 5.836 154.337 5.836C154.673 5.836 154.963 5.836 155.205 5.836C155.448 5.836 155.625 5.836 155.737 5.836C156.045 5.836 156.325 5.81733 156.577 5.78C156.839 5.74267 157.039 5.70067 157.179 5.654L158.327 6.508ZM155.191 10.862C155.555 11.1513 155.943 11.4873 156.353 11.87C156.764 12.2527 157.17 12.6493 157.571 13.06C157.973 13.4707 158.341 13.8673 158.677 14.25C159.023 14.6233 159.312 14.95 159.545 15.23L157.949 16.616C157.604 16.14 157.207 15.6453 156.759 15.132C156.321 14.6187 155.854 14.11 155.359 13.606C154.874 13.0927 154.379 12.6073 153.875 12.15L155.191 10.862Z" fill="#222222"/>
<path d="M61.483 36.317C62.323 36.149 63.324 35.932 64.486 35.666C65.648 35.386 66.817 35.106 67.993 34.826L68.308 37.178C67.244 37.486 66.166 37.794 65.074 38.102C63.982 38.396 62.974 38.662 62.05 38.9L61.483 36.317ZM66.901 23.297H69.337V42.869H66.901V23.297ZM62.953 25.607H65.284V36.905H62.953V25.607ZM70.072 24.578H78.85V27.056H70.072V24.578ZM78.241 24.578H78.682L79.144 24.473L80.824 24.977C80.474 28.001 79.872 30.661 79.018 32.957C78.178 35.253 77.086 37.22 75.742 38.858C74.412 40.482 72.844 41.812 71.038 42.848C70.912 42.624 70.751 42.372 70.555 42.092C70.359 41.826 70.149 41.56 69.925 41.294C69.701 41.042 69.491 40.832 69.295 40.664C70.513 40.062 71.619 39.271 72.613 38.291C73.621 37.297 74.503 36.135 75.259 34.805C76.015 33.475 76.645 31.998 77.149 30.374C77.653 28.75 78.017 27 78.241 25.124V24.578ZM73.18 27.203C73.572 29.219 74.125 31.109 74.839 32.873C75.553 34.623 76.463 36.17 77.569 37.514C78.675 38.844 80.026 39.894 81.622 40.664C81.426 40.832 81.209 41.042 80.971 41.294C80.747 41.56 80.53 41.833 80.32 42.113C80.11 42.393 79.942 42.645 79.816 42.869C78.108 41.931 76.673 40.72 75.511 39.236C74.349 37.752 73.39 36.037 72.634 34.091C71.878 32.145 71.255 29.996 70.765 27.644L73.18 27.203ZM100.417 32.6L102.37 33.818C101.95 34.294 101.516 34.77 101.068 35.246C100.62 35.708 100.207 36.114 99.829 36.464L98.254 35.393C98.492 35.155 98.744 34.875 99.01 34.553C99.276 34.231 99.535 33.902 99.787 33.566C100.039 33.216 100.249 32.894 100.417 32.6ZM91.072 33.965L92.71 32.915C93.13 33.293 93.55 33.734 93.97 34.238C94.39 34.728 94.698 35.169 94.894 35.561L93.13 36.737C92.962 36.345 92.675 35.89 92.269 35.372C91.877 34.84 91.478 34.371 91.072 33.965ZM91.975 23.864H100.648V31.256H98.317V25.922H91.975V23.864ZM92.437 27.056H99.619V28.967H92.437V27.056ZM90.967 30.059H102.202V32.18H90.967V30.059ZM95.293 31.151H97.624V40.496C97.624 41.028 97.568 41.448 97.456 41.756C97.358 42.078 97.148 42.323 96.826 42.491C96.504 42.673 96.126 42.785 95.692 42.827C95.258 42.869 94.754 42.89 94.18 42.89C94.152 42.568 94.075 42.204 93.949 41.798C93.837 41.392 93.718 41.028 93.592 40.706C93.886 40.72 94.166 40.727 94.432 40.727C94.712 40.727 94.901 40.727 94.999 40.727C95.125 40.727 95.202 40.706 95.23 40.664C95.272 40.622 95.293 40.552 95.293 40.454V31.151ZM90.358 39.425C90.89 39.131 91.527 38.753 92.269 38.291C93.011 37.815 93.767 37.325 94.537 36.821L95.314 38.732C94.684 39.194 94.04 39.663 93.382 40.139C92.738 40.615 92.115 41.056 91.513 41.462L90.358 39.425ZM97.561 32.642C97.729 33.258 97.953 33.902 98.233 34.574C98.527 35.246 98.877 35.911 99.283 36.569C99.703 37.227 100.193 37.829 100.753 38.375C101.327 38.907 101.978 39.355 102.706 39.719C102.538 39.873 102.349 40.076 102.139 40.328C101.943 40.566 101.747 40.811 101.551 41.063C101.355 41.329 101.201 41.574 101.089 41.798C100.403 41.35 99.787 40.811 99.241 40.181C98.709 39.551 98.24 38.872 97.834 38.144C97.428 37.402 97.085 36.674 96.805 35.96C96.539 35.246 96.322 34.581 96.154 33.965L97.561 32.642ZM84.1 28.4H90.316V30.5H84.1V28.4ZM83.092 32.033H90.778V34.154H83.092V32.033ZM83.302 35.351L84.919 34.931C85.087 35.519 85.241 36.156 85.381 36.842C85.521 37.514 85.612 38.095 85.654 38.585L83.953 39.047C83.939 38.529 83.869 37.934 83.743 37.262C83.617 36.576 83.47 35.939 83.302 35.351ZM82.861 40.139C83.533 40.041 84.296 39.922 85.15 39.782C86.004 39.628 86.9 39.467 87.838 39.299C88.79 39.131 89.742 38.963 90.694 38.795L90.862 40.895C89.56 41.161 88.244 41.427 86.914 41.693C85.598 41.973 84.408 42.218 83.344 42.428L82.861 40.139ZM89.119 34.784L90.925 35.204C90.757 35.806 90.582 36.415 90.4 37.031C90.232 37.647 90.071 38.172 89.917 38.606L88.384 38.207C88.482 37.885 88.573 37.521 88.657 37.115C88.755 36.709 88.846 36.303 88.93 35.897C89.014 35.477 89.077 35.106 89.119 34.784ZM85.969 29.24H88.153V40.538L85.969 40.937V29.24ZM85.864 23.15H87.187V23.633H87.901V24.284C87.495 25.068 86.956 25.971 86.284 26.993C85.612 28.001 84.758 28.974 83.722 29.912C83.624 29.744 83.484 29.555 83.302 29.345C83.12 29.135 82.931 28.932 82.735 28.736C82.553 28.54 82.378 28.386 82.21 28.274C82.812 27.77 83.344 27.231 83.806 26.657C84.268 26.069 84.674 25.474 85.024 24.872C85.374 24.27 85.654 23.696 85.864 23.15ZM86.2 23.15H87.943C88.349 23.5 88.776 23.892 89.224 24.326C89.672 24.76 90.092 25.194 90.484 25.628C90.89 26.048 91.219 26.44 91.471 26.804L89.854 28.736C89.644 28.372 89.357 27.959 88.993 27.497C88.629 27.021 88.237 26.559 87.817 26.111C87.411 25.649 87.012 25.257 86.62 24.935H86.2V23.15ZM115.327 23.423H117.889V42.869H115.327V23.423ZM111.757 24.326L114.193 24.809C113.997 25.761 113.759 26.706 113.479 27.644C113.199 28.582 112.884 29.464 112.534 30.29C112.198 31.102 111.841 31.816 111.463 32.432C111.309 32.306 111.092 32.166 110.812 32.012C110.546 31.858 110.273 31.711 109.993 31.571C109.727 31.417 109.489 31.305 109.279 31.235C109.657 30.675 110.007 30.024 110.329 29.282C110.651 28.526 110.931 27.728 111.169 26.888C111.407 26.034 111.603 25.18 111.757 24.326ZM112.576 27.224H122.299V29.702H111.946L112.576 27.224ZM109.636 33.335H123.286V35.792H109.636V33.335ZM108.082 23.234L110.476 23.99C110.028 25.166 109.503 26.356 108.901 27.56C108.299 28.75 107.641 29.877 106.927 30.941C106.227 32.005 105.499 32.943 104.743 33.755C104.659 33.545 104.54 33.279 104.386 32.957C104.232 32.621 104.064 32.285 103.882 31.949C103.7 31.613 103.532 31.34 103.378 31.13C104.008 30.486 104.61 29.744 105.184 28.904C105.772 28.064 106.311 27.161 106.801 26.195C107.305 25.229 107.732 24.242 108.082 23.234ZM106.003 29.051L108.397 26.657V26.678V42.848H106.003V29.051ZM124.609 34.112H135.235V36.149H124.609V34.112ZM124.861 26.699H135.172V28.694H124.861V26.699ZM128.41 32.621L130.741 33.104C130.391 33.832 130.013 34.581 129.607 35.351C129.215 36.121 128.823 36.87 128.431 37.598C128.039 38.312 127.675 38.949 127.339 39.509L125.134 38.837C125.47 38.305 125.827 37.682 126.205 36.968C126.597 36.254 126.982 35.519 127.36 34.763C127.752 33.993 128.102 33.279 128.41 32.621ZM131.371 35.519L133.702 35.729C133.506 36.835 133.212 37.787 132.82 38.585C132.442 39.369 131.931 40.041 131.287 40.601C130.657 41.147 129.887 41.602 128.977 41.966C128.067 42.344 126.982 42.659 125.722 42.911C125.652 42.561 125.519 42.19 125.323 41.798C125.127 41.406 124.924 41.084 124.714 40.832C126.1 40.65 127.241 40.363 128.137 39.971C129.047 39.579 129.761 39.026 130.279 38.312C130.797 37.598 131.161 36.667 131.371 35.519ZM132.862 23.402L134.983 24.263C134.647 24.725 134.311 25.187 133.975 25.649C133.653 26.097 133.359 26.482 133.093 26.804L131.476 26.09C131.714 25.726 131.966 25.292 132.232 24.788C132.498 24.27 132.708 23.808 132.862 23.402ZM128.872 23.129H131.182V32.915H128.872V23.129ZM125.386 24.263L127.192 23.507C127.472 23.899 127.731 24.34 127.969 24.83C128.207 25.32 128.375 25.747 128.473 26.111L126.541 26.951C126.471 26.587 126.324 26.153 126.1 25.649C125.876 25.145 125.638 24.683 125.386 24.263ZM128.935 27.686L130.552 28.673C130.216 29.233 129.775 29.793 129.229 30.353C128.697 30.913 128.123 31.438 127.507 31.928C126.905 32.404 126.31 32.81 125.722 33.146C125.582 32.88 125.386 32.565 125.134 32.201C124.896 31.837 124.665 31.543 124.441 31.319C125.001 31.081 125.568 30.773 126.142 30.395C126.716 30.003 127.248 29.576 127.738 29.114C128.242 28.638 128.641 28.162 128.935 27.686ZM130.972 28.295C131.168 28.393 131.434 28.54 131.77 28.736C132.12 28.932 132.491 29.149 132.883 29.387C133.289 29.611 133.653 29.821 133.975 30.017C134.311 30.213 134.549 30.36 134.689 30.458L133.366 32.201C133.17 32.019 132.918 31.795 132.61 31.529C132.302 31.263 131.973 30.99 131.623 30.71C131.273 30.43 130.937 30.164 130.615 29.912C130.293 29.66 130.013 29.457 129.775 29.303L130.972 28.295ZM136.621 26.951H144.349V29.282H136.621V26.951ZM136.852 23.129L139.414 23.507C139.19 24.949 138.903 26.349 138.553 27.707C138.203 29.051 137.776 30.297 137.272 31.445C136.782 32.579 136.208 33.58 135.55 34.448C135.424 34.28 135.242 34.084 135.004 33.86C134.766 33.636 134.514 33.419 134.248 33.209C133.982 32.985 133.758 32.803 133.576 32.663C134.164 31.935 134.668 31.074 135.088 30.08C135.522 29.072 135.886 27.98 136.18 26.804C136.474 25.614 136.698 24.389 136.852 23.129ZM140.674 28.379L143.257 28.631C142.949 31.025 142.473 33.132 141.829 34.952C141.199 36.772 140.324 38.34 139.204 39.656C138.084 40.972 136.642 42.071 134.878 42.953C134.794 42.757 134.668 42.512 134.5 42.218C134.332 41.924 134.15 41.63 133.954 41.336C133.758 41.056 133.576 40.832 133.408 40.664C135.004 39.964 136.292 39.054 137.272 37.934C138.266 36.814 139.029 35.463 139.561 33.881C140.093 32.285 140.464 30.451 140.674 28.379ZM138.049 28.82C138.343 30.584 138.756 32.243 139.288 33.797C139.82 35.351 140.52 36.716 141.388 37.892C142.256 39.068 143.327 39.992 144.601 40.664C144.419 40.818 144.216 41.021 143.992 41.273C143.768 41.539 143.551 41.812 143.341 42.092C143.145 42.372 142.984 42.624 142.858 42.848C141.444 42.008 140.275 40.923 139.351 39.593C138.441 38.263 137.706 36.723 137.146 34.973C136.586 33.209 136.131 31.284 135.781 29.198L138.049 28.82ZM126.982 38.858L128.326 37.157C129.152 37.465 129.971 37.822 130.783 38.228C131.609 38.634 132.372 39.054 133.072 39.488C133.786 39.908 134.381 40.314 134.857 40.706L133.093 42.491C132.659 42.099 132.113 41.686 131.455 41.252C130.797 40.818 130.083 40.398 129.313 39.992C128.543 39.572 127.766 39.194 126.982 38.858Z" fill="#222222"/>
<path d="M87.6053 88H79.9353L64.9441 61.9272V88H57.7971V51.2939H65.8406L80.4583 76.9185V51.2939H87.6053V88ZM116.841 64.293C119.132 67.165 120.277 70.5601 120.277 74.478C120.277 78.4624 119.132 81.874 116.841 84.7129C114.55 87.5352 111.072 88.9463 106.407 88.9463C101.741 88.9463 98.2635 87.5352 95.9724 84.7129C93.6814 81.874 92.5359 78.4624 92.5359 74.478C92.5359 70.5601 93.6814 67.165 95.9724 64.293C98.2635 61.4209 101.741 59.9849 106.407 59.9849C111.072 59.9849 114.55 61.4209 116.841 64.293ZM106.382 65.9863C104.306 65.9863 102.704 66.7251 101.575 68.2026C100.463 69.6636 99.907 71.7554 99.907 74.478C99.907 77.2007 100.463 79.3008 101.575 80.7783C102.704 82.2559 104.306 82.9946 106.382 82.9946C108.457 82.9946 110.051 82.2559 111.163 80.7783C112.275 79.3008 112.831 77.2007 112.831 74.478C112.831 71.7554 112.275 69.6636 111.163 68.2026C110.051 66.7251 108.457 65.9863 106.382 65.9863ZM124.238 80.5791H131.783V88H124.238V80.5791ZM145.874 88H138.602V63.0977H130.111V58.2666C132.352 58.167 133.921 58.0176 134.817 57.8184C136.245 57.5029 137.407 56.8721 138.303 55.9258C138.918 55.2783 139.383 54.415 139.698 53.3359C139.881 52.6885 139.972 52.207 139.972 51.8916H145.874V88Z" fill="#A7AC50"/>
</svg>
