<svg width="204" height="106" viewBox="0 0 204 106" fill="none" xmlns="http://www.w3.org/2000/svg">
<path d="M9.97875 31.4005C10.645 29.1924 11.6333 26.8263 12.9499 24.3023C13.0983 24.0212 13.1236 23.6895 13.0257 23.3862C11.3838 18.4298 11.7817 12.9206 15.6149 9.18037C15.779 9.01926 16.0537 9.09192 16.1201 9.30989C16.2085 9.60051 16.2716 9.97643 16.3095 10.4376C16.5558 13.7261 16.2432 17.0272 15.3686 20.3283C15.3559 20.3726 15.3812 20.4168 15.4222 20.4358C15.4665 20.4547 15.517 20.4358 15.5391 20.3947C16.7294 18.2276 18.1566 16.724 19.1544 14.4179C20.8721 10.4282 24.3579 7.13336 28.5511 6.01825C28.69 5.9835 28.8005 5.9835 28.8921 6.01825C29.0089 6.06247 29.0657 6.19199 29.0278 6.31519C27.3733 10.9525 23.5622 14.0799 19.5838 17.0272C19.5428 17.0588 19.508 17.0904 19.4765 17.1315L17.162 20.3062C17.1273 20.3568 17.1304 20.4263 17.1746 20.4673C17.2189 20.5116 17.2915 20.5179 17.3388 20.4768C19.7417 18.5656 22.4761 17.6717 25.5451 17.7917C25.8988 17.8043 26.104 18.1992 25.9177 18.4993C23.7517 21.9489 19.0944 24.2549 15.2265 25.0921C14.355 25.2816 14.0551 25.6923 13.7172 26.4409C12.8047 28.4564 11.8859 30.6613 10.9607 33.0621C10.9481 33.0937 10.9607 33.1285 10.9923 33.1474C11.0239 33.1664 11.0586 33.1569 11.0807 33.1285C11.4343 32.6894 11.8448 32.1587 12.3184 31.5363C13.9919 29.3251 17.2852 26.88 20.2374 26.9306C20.4079 26.9337 20.5184 27.1138 20.449 27.2654C18.3429 31.827 15.0591 35.0302 10.6071 36.8845C10.2282 37.0424 9.95033 37.3773 9.86823 37.7785C9.36304 40.3467 9.0536 43.1898 8.94309 46.3013C8.94309 46.3582 8.98414 46.4119 9.04097 46.4214C9.09781 46.4308 9.1578 46.3929 9.17043 46.3361C10.1398 42.7633 11.5228 39.9171 14.7087 37.9648C15.3023 37.6015 15.9622 37.3457 16.6821 37.194C16.8526 37.1593 17.001 37.3046 16.9694 37.4752C16.0001 42.5453 13.4836 46.6078 9.42303 49.653C9.25253 49.7825 9.1578 49.9847 9.16412 50.1995C9.24621 53.0678 9.60616 55.8319 10.2503 58.4791C10.2629 58.5328 10.3134 58.5676 10.3671 58.5644C10.4208 58.5613 10.4618 58.5139 10.465 58.4602C10.746 54.1956 11.6112 50.8692 15.2802 48.4305C15.4443 48.3199 15.6748 48.3957 15.7412 48.5821C16.319 50.1616 15.637 53.2763 15.4949 54.0787C14.9613 57.0544 13.6509 59.6069 11.5638 61.7234C11.3459 61.9477 11.2638 62.273 11.3523 62.5731C12.1606 65.3246 13.1552 67.9339 14.3329 70.4011C14.3519 70.4358 14.3898 70.4548 14.4308 70.4421C14.4718 70.4326 14.4939 70.3916 14.4845 70.3537C13.7993 66.6608 14.2508 61.8845 17.1147 59.1267C17.3388 58.9119 17.7146 59.0383 17.7619 59.3447C18.3745 63.3187 18.7818 66.1838 17.7935 69.8356C17.683 70.2526 17.3136 71.4783 16.6916 73.5189C16.5621 73.9454 16.6252 74.4003 16.8621 74.7762L20.6921 80.7972C20.7142 80.8288 20.7552 80.8414 20.79 80.8256C20.8247 80.8067 20.8405 80.7688 20.8247 80.7309C19.4922 77.3381 19.2712 73.0325 20.7047 69.4913C20.8247 69.1912 21.2415 69.1596 21.4057 69.4376C23.2812 72.5618 24.1337 75.9861 23.9601 79.7042C23.919 80.6045 23.8401 81.9565 23.717 83.7698C23.6885 84.1773 24.0138 84.7111 24.6831 85.3587C26.2587 86.8845 27.9448 88.3945 29.7446 89.8887C29.7951 89.9297 29.8646 89.9298 29.9088 89.8855C29.9593 89.8413 29.9625 89.775 29.9277 89.7213C27.6764 86.5402 26.8018 82.9169 27.2912 78.8576C27.3039 78.7376 27.4491 78.6838 27.5407 78.7628C31.5665 82.2408 33.1199 86.9319 33.1326 92.1189C33.1326 92.3906 33.2683 92.6433 33.4894 92.7949C36.0343 94.5229 38.8129 96.1087 41.8283 97.5429C41.9009 97.5744 41.9767 97.565 41.9704 97.5207V97.4702C41.9672 97.4291 41.9577 97.3975 41.9419 97.3881C38.5477 94.7977 36.1132 91.5693 35.9964 87.1499C35.9964 87.0235 36.1164 86.9351 36.2332 86.9793C36.7889 87.1909 37.3636 87.5163 37.9698 87.9586C41.3894 90.4573 43.7322 93.6731 44.6227 97.8651C44.7205 98.3294 45.0647 98.7053 45.5225 98.8443L54.6256 101.602C54.8971 101.684 55.055 101.969 54.9824 102.243L54.9413 102.408C54.815 102.818 54.3951 103.065 53.9751 102.973C50.8334 102.256 47.8338 101.416 44.97 100.449C44.2059 100.19 43.5459 100.386 42.7376 100.784C38.1435 103.052 32.7474 102.145 28.5163 99.5267C28.3332 99.4161 28.3332 99.1508 28.5163 99.0402C29.6657 98.3515 30.8876 97.9883 32.179 97.9567C35.3523 97.8809 38.1751 98.1178 40.6537 98.6674C40.7105 98.6801 40.7705 98.6485 40.7895 98.5916L40.821 98.4842C40.821 98.4842 40.821 98.4558 40.8084 98.4526C38.1972 97.3375 35.6238 95.9286 33.0852 94.2228C32.82 94.0427 32.4948 93.9795 32.1822 94.049C27.4144 95.101 22.956 94.286 18.8134 91.5977C18.0587 91.1049 17.443 90.5426 16.9789 89.9045C16.8494 89.7307 16.9473 89.478 17.162 89.4338C20.6795 88.7136 24.0548 89.1842 27.2912 90.849C27.708 91.0638 28.5574 91.5061 29.8456 92.1789C29.874 92.1916 29.8993 92.1821 29.9183 92.16C29.9309 92.1379 29.9309 92.1063 29.9088 92.0873L22.8771 85.8357C22.716 85.6936 22.5045 85.6083 22.2898 85.602C16.9157 85.4503 11.3554 82.3388 8.44421 77.752C8.34001 77.594 8.45684 77.3855 8.64629 77.3855C12.9152 77.4045 16.0727 79.3188 19.3028 81.9376C19.3344 81.966 19.3849 81.966 19.4133 81.9344C19.4449 81.906 19.448 81.8618 19.4259 81.827L15.037 74.9278C15.0086 74.8836 14.9644 74.852 14.9171 74.8331C13.853 74.4887 11.8069 73.9833 10.5313 73.241C7.28857 71.3487 3.7143 67.6496 3.00702 63.7704C2.97229 63.5651 3.17121 63.3976 3.36382 63.4734C6.92862 64.8697 9.71983 67.2642 12.2837 70.2336C12.3121 70.2652 12.3563 70.2747 12.3911 70.2526C12.4258 70.2305 12.4416 70.1894 12.4258 70.1483L9.56827 62.7911C9.42934 62.4342 9.17043 62.1372 8.8389 61.954C3.95427 59.2278 0.793629 55.2507 0.00110029 49.6246C-0.0115296 49.5077 0.0863523 49.4129 0.203179 49.4319C2.88388 49.8962 5.27725 52.7804 6.856 55.3612C7.78114 56.8744 8.3558 57.8979 8.57998 58.4349C8.62103 58.5328 8.72838 58.5771 8.82627 58.5391H8.83574C8.93046 58.4981 8.97467 58.3907 8.93993 58.2927C7.97374 55.7498 7.86955 53.0552 7.70536 49.9752C7.68641 49.6182 7.50328 49.2865 7.20963 49.0812C6.21187 48.3926 5.48565 47.9187 4.86047 47.0658C2.25554 43.553 1.25146 39.4843 1.8356 34.869C1.8798 34.5121 2.30922 34.3541 2.57761 34.6005C5.22989 37.0361 6.70128 41.168 7.2791 44.6176C7.28857 44.6808 7.34541 44.7282 7.40856 44.725C7.47486 44.725 7.52854 44.6745 7.53801 44.6144L8.56735 36.9192C8.62103 36.5085 8.51052 36.0947 8.25476 35.763C5.15095 31.7891 5.01518 25.5312 7.01071 21.0549C7.1749 20.679 7.70536 20.6569 7.90112 21.0138C9.22095 23.3957 9.86508 26.0271 9.82403 28.9049C9.80509 30.3107 9.80509 31.1352 9.82719 31.3816C9.83035 31.4668 9.95349 31.4763 9.97875 31.3942V31.4005Z" fill="#A7AC50"/>
<path d="M185.269 82.0934C186.261 81.4183 187.467 80.6387 188.898 79.7482C191.274 78.265 193.783 77.5265 196.43 77.5202C196.627 77.5202 196.744 77.7357 196.646 77.9005C195.812 79.2791 194.798 80.4517 193.612 81.4088C191.522 83.0917 188.662 85.0407 186.239 85.3069C185.425 85.3957 184.359 85.4464 183.058 85.4495C182.575 85.4527 182.117 85.6555 181.786 86.0073C179.935 88.0071 177.96 89.8104 175.873 91.4235C175.819 91.4679 175.81 91.5439 175.845 91.5978L175.911 91.6865C175.911 91.6865 175.934 91.6992 175.943 91.696C179.432 89.8516 183.507 88.2416 187.193 89.3382C187.591 89.4554 187.711 89.953 187.412 90.2414C184.4 93.138 180.746 94.5356 176.442 94.4406C175.609 94.4216 174.521 94.355 173.189 94.2377C172.626 94.187 172.063 94.2948 171.56 94.5483L164.417 98.1675C164.417 98.1675 164.394 98.1961 164.397 98.2087L164.442 98.3197C164.471 98.3926 164.55 98.4306 164.623 98.4084C168.17 97.4069 172.813 97.1692 176.058 99.0518C176.325 99.2039 176.318 99.5873 176.048 99.7331C171.159 102.386 166.242 102.652 161.293 100.532C160.733 100.294 160.104 100.266 159.531 100.465C156.872 101.378 153.641 102.218 149.843 102.978C149.41 103.064 149.01 102.741 149 102.303V102.272C148.997 101.796 149.328 101.378 149.798 101.28C153.237 100.548 156.265 99.7173 158.876 98.7824C159.786 98.4559 160.129 98.1485 160.314 97.1534C161.153 92.65 164.986 88.6948 168.873 86.4257C169.016 86.3401 169.2 86.4478 169.197 86.6158C169.076 91.2048 166.341 94.5008 162.775 97.2168C162.721 97.2612 162.712 97.3372 162.747 97.3911L162.813 97.4798C162.813 97.4798 162.836 97.4925 162.845 97.4893C165.387 96.0474 168.583 94.6973 171.331 92.7958C171.525 92.6626 171.659 92.4503 171.697 92.2158C171.827 91.3981 171.748 90.3174 171.818 89.5346C172.2 85.4527 174.032 82.03 177.301 79.2791C177.463 79.1428 177.712 79.2474 177.724 79.4534C177.982 82.9079 176.993 86.1626 175.65 89.2938C175.6 89.411 175.746 89.5093 175.841 89.4237C177.667 87.7726 179.146 86.3559 180.266 85.177C180.781 84.6382 181.105 84.1945 181.236 83.8396C181.287 83.7001 181.302 83.5512 181.29 83.4054C181.217 82.5846 181.163 81.187 181.124 79.2189C181.058 76.0022 182.047 71.5716 184.483 69.2898C184.633 69.1472 184.884 69.2264 184.928 69.4292C185.727 73.0073 185.6 76.5726 184.559 80.1253C184.537 80.1982 184.572 80.2774 184.645 80.3091C184.712 80.3408 184.795 80.3123 184.836 80.2521C186.089 78.2586 187.148 76.5251 188.017 75.0482C188.405 74.3986 188.602 73.8851 188.612 73.5175C188.615 73.3654 188.589 73.2133 188.529 73.0675C187.537 70.643 187.034 68.9824 187.009 68.0792C186.932 65.1381 186.996 62.8024 187.203 61.0784C187.288 60.3558 187.514 59.6016 187.874 58.8188C187.972 58.6064 188.265 58.5747 188.405 58.7649C191.169 62.457 191.197 66.802 190.466 71.1596C190.456 71.223 190.494 71.2864 190.552 71.3022C190.615 71.3244 190.682 71.2991 190.711 71.2389C192.091 68.469 193.001 65.6674 193.446 62.8405C193.586 61.9373 193.478 61.4302 192.73 60.6791C190.307 58.2325 188.968 55.133 188.71 51.3807C188.697 51.162 188.653 50.151 188.583 48.3572C188.573 48.1924 188.748 48.0783 188.898 48.1607C192.403 50.1003 193.662 53.9635 193.949 57.7349C193.952 57.7698 193.98 57.8014 194.022 57.8014C194.057 57.8046 194.089 57.7793 194.098 57.7444L195.523 50.6771C195.641 50.1035 195.405 49.514 194.928 49.1686C191.092 46.4304 188.726 42.5354 187.829 37.4932C187.794 37.2904 187.979 37.1193 188.182 37.17C191.897 38.0985 194.699 42.3611 195.488 45.8726C195.498 45.9233 195.542 45.955 195.593 45.9455C195.644 45.9423 195.679 45.8948 195.679 45.8472C195.603 43.5717 195.412 41.1948 195.103 38.726C195.027 38.089 194.887 37.5059 194.693 36.9798C194.62 36.7833 194.467 36.6217 194.27 36.5456C193.351 36.178 191.916 35.7723 190.972 35.1448C188.233 33.313 185.148 30.4513 184.031 27.1997C183.974 27.0349 184.108 26.8637 184.289 26.8764C188.332 27.2092 191.099 29.7952 193.459 32.8852C193.468 32.8947 193.478 32.8979 193.491 32.8884C193.5 32.8852 193.503 32.8694 193.5 32.8598L190.666 25.5992C190.536 25.2569 190.23 25.0097 189.868 24.9527C187.839 24.6263 185.749 23.9417 183.596 22.9149C181.264 21.8057 179.54 20.1165 178.421 17.8537C178.31 17.635 178.478 17.372 178.726 17.3815C182.117 17.5399 185.059 18.6618 187.549 20.7503C187.584 20.7757 187.635 20.7757 187.667 20.7503C187.699 20.7186 187.708 20.6679 187.68 20.6331L184.903 16.7128C184.862 16.6557 184.817 16.6082 184.76 16.5733C181.894 14.7732 179.496 12.5326 177.572 9.85146C176.811 8.79294 176.264 7.64252 175.93 6.40337C175.864 6.15617 176.096 5.93116 176.341 6.00722C179.369 6.9453 181.802 8.67885 183.64 11.2079C183.996 11.6959 184.655 12.9097 185.606 14.8398C186.264 16.174 187.009 17.3466 187.832 18.3544C188.3 18.928 188.513 19.7679 189.063 20.3352C189.14 20.4112 189.267 20.3383 189.238 20.2369C188.43 17.3846 188.052 14.3707 188.093 11.1984C188.106 10.3807 188.224 9.6613 188.446 9.04331C188.5 8.89119 188.685 8.82464 188.825 8.90703C189.257 9.16691 189.636 9.54087 189.963 10.0289C192.556 13.9175 192.667 18.8583 191.388 23.1716C191.325 23.3839 191.347 23.6058 191.452 23.8054C192.727 26.1728 193.774 28.6765 194.588 31.326C194.601 31.3703 194.645 31.3988 194.696 31.3925C194.741 31.383 194.779 31.3418 194.772 31.2943C194.607 27.7828 194.76 24.1984 196.43 21.1306C196.55 20.9025 196.697 20.7567 196.859 20.6996C196.948 20.6679 197.053 20.7091 197.088 20.7979C198.36 23.815 198.831 26.9715 198.503 30.2643C198.29 32.3971 197.132 34.0451 195.965 35.7565C195.79 36.0164 195.727 36.3396 195.79 36.6502C196.436 39.8067 196.709 43.0171 196.604 46.2909C196.601 46.3543 196.649 46.4082 196.713 46.4177H196.818C196.891 46.4177 196.948 46.3638 196.954 46.2909L197.145 43.0266C197.148 42.9759 197.155 42.9316 197.167 42.8872C197.956 39.9684 199.407 36.5615 201.76 34.5902C202.062 34.343 202.517 34.5395 202.536 34.9325C202.765 39.7814 201.56 45.4321 197.594 48.6013C197.164 48.9435 196.903 49.4538 196.878 50.002C196.719 53.092 196.261 56.0869 195.498 58.9836C195.475 59.0786 195.529 59.1674 195.618 59.1959L195.73 59.2308C195.752 59.2403 195.774 59.2308 195.784 59.2086C197.085 56.2771 198.844 53.653 201.067 51.3426C201.773 50.6074 202.568 50.0591 203.446 49.6978C203.729 49.5805 204.038 49.8151 203.996 50.1193C203.36 55.0062 201 58.8219 196.907 61.5665C196.614 61.7629 196.204 61.9436 195.682 62.1084C195.221 62.2478 194.881 62.6281 194.782 63.0972C194.2 65.8861 193.386 68.3327 192.327 70.4307C192.304 70.4719 192.323 70.5258 192.362 70.548C192.403 70.5765 192.457 70.5606 192.482 70.5258C194.419 67.9746 198.783 63.7691 202.139 63.5662C202.377 63.5535 202.549 63.7944 202.45 64.0099C200.094 69.1884 196.15 73.3083 190.612 74.6331C190.145 74.744 189.75 75.0546 189.528 75.4761C188.335 77.7389 186.881 79.9098 185.18 81.9888C185.157 82.0141 185.161 82.0522 185.183 82.0775C185.205 82.0997 185.246 82.106 185.272 82.087L185.269 82.0934Z" fill="#A7AC50"/>
<path d="M42.172 3.743H51.246V14.988H49.569V5.316H43.771V15.014H42.172V3.743ZM43.264 8.111H50.258V9.645H43.264V8.111ZM43.264 12.583H50.271V14.156H43.264V12.583ZM53.677 5.485H65.169V7.071H53.677V5.485ZM56.342 11.374H62.387V12.96H56.342V11.374ZM58.578 2.963H60.229V15.17H58.578V2.963ZM58.11 6.057L59.54 6.512C59.1673 7.448 58.7167 8.34067 58.188 9.19C57.6593 10.0393 57.0657 10.8107 56.407 11.504C55.757 12.1887 55.055 12.7737 54.301 13.259C54.2143 13.129 54.1017 12.986 53.963 12.83C53.8243 12.6653 53.6857 12.505 53.547 12.349C53.417 12.1843 53.287 12.0543 53.157 11.959C53.6943 11.6643 54.21 11.3047 54.704 10.88C55.198 10.4553 55.6573 9.983 56.082 9.463C56.5153 8.943 56.901 8.397 57.239 7.825C57.5857 7.24433 57.876 6.655 58.11 6.057ZM60.71 6.096C61.022 6.85867 61.4293 7.60833 61.932 8.345C62.4433 9.073 63.024 9.736 63.674 10.334C64.324 10.932 65.0087 11.4217 65.728 11.803C65.598 11.907 65.455 12.0413 65.299 12.206C65.1517 12.3707 65.0087 12.544 64.87 12.726C64.7313 12.8993 64.6143 13.0597 64.519 13.207C63.765 12.739 63.0587 12.167 62.4 11.491C61.75 10.8063 61.165 10.0437 60.645 9.203C60.125 8.36233 59.6743 7.48267 59.293 6.564L60.71 6.096ZM72.098 4.432C71.8293 4.81333 71.5087 5.20767 71.136 5.615C70.7633 6.01367 70.3517 6.41233 69.901 6.811C69.4503 7.201 68.9693 7.57367 68.458 7.929C67.9553 8.28433 67.4353 8.60933 66.898 8.904C66.8027 8.722 66.6553 8.50967 66.456 8.267C66.2653 8.01567 66.0833 7.812 65.91 7.656C66.664 7.266 67.3833 6.80667 68.068 6.278C68.7527 5.74067 69.368 5.17733 69.914 4.588C70.46 3.99867 70.8933 3.43967 71.214 2.911H72.839C73.1857 3.405 73.5757 3.88167 74.009 4.341C74.4423 4.80033 74.8973 5.22933 75.374 5.628C75.8593 6.018 76.3577 6.37333 76.869 6.694C77.389 7.006 77.909 7.27467 78.429 7.5C78.2297 7.69933 78.0433 7.92033 77.87 8.163C77.6967 8.40567 77.5363 8.64833 77.389 8.891C76.895 8.61367 76.3923 8.30167 75.881 7.955C75.3697 7.59967 74.88 7.227 74.412 6.837C73.944 6.43833 73.5107 6.03533 73.112 5.628C72.7133 5.22067 72.3753 4.822 72.098 4.432ZM67.691 10.542H76.583V11.894H67.691V10.542ZM68.354 7.656H75.985V9.034H68.354V7.656ZM66.638 13.467H77.753V14.858H66.638V13.467ZM71.292 8.267H72.93V14.234H71.292V8.267ZM81.614 5.602H88.036V6.954H81.614V5.602ZM81.965 8.189H87.75V9.502H81.965V8.189ZM81.484 11.049H88.257V12.323H81.484V11.049ZM84.097 6.031H85.54V11.725H84.097V6.031ZM85.956 9.918L86.944 9.411C87.1347 9.593 87.334 9.80533 87.542 10.048C87.75 10.282 87.906 10.49 88.01 10.672L86.97 11.257C86.866 11.075 86.7143 10.8583 86.515 10.607C86.3243 10.3557 86.138 10.126 85.956 9.918ZM79.378 3.47H90.363V15.144H88.699V4.9H80.964V15.144H79.378V3.47ZM80.249 13.064H89.466V14.507H80.249V13.064ZM98.813 5.095C98.7263 5.75367 98.6137 6.45567 98.475 7.201C98.3363 7.94633 98.15 8.70033 97.916 9.463C97.6647 10.3383 97.37 11.0923 97.032 11.725C96.694 12.3577 96.3213 12.8473 95.914 13.194C95.5153 13.532 95.0777 13.701 94.601 13.701C94.1243 13.701 93.6823 13.5407 93.275 13.22C92.8763 12.8907 92.5557 12.44 92.313 11.868C92.079 11.296 91.962 10.646 91.962 9.918C91.962 9.164 92.1137 8.45333 92.417 7.786C92.7203 7.11867 93.1407 6.52933 93.678 6.018C94.224 5.498 94.8567 5.09067 95.576 4.796C96.304 4.50133 97.0883 4.354 97.929 4.354C98.735 4.354 99.4587 4.484 100.1 4.744C100.75 5.004 101.305 5.36367 101.764 5.823C102.223 6.28233 102.574 6.81967 102.817 7.435C103.06 8.05033 103.181 8.71333 103.181 9.424C103.181 10.334 102.995 11.1487 102.622 11.868C102.249 12.5873 101.695 13.181 100.958 13.649C100.23 14.117 99.32 14.4377 98.228 14.611L97.253 13.064C97.5043 13.038 97.7253 13.0077 97.916 12.973C98.1067 12.9383 98.2887 12.8993 98.462 12.856C98.878 12.752 99.2637 12.6047 99.619 12.414C99.983 12.2147 100.299 11.972 100.568 11.686C100.837 11.3913 101.045 11.049 101.192 10.659C101.348 10.269 101.426 9.84 101.426 9.372C101.426 8.86067 101.348 8.39267 101.192 7.968C101.036 7.54333 100.806 7.175 100.503 6.863C100.2 6.54233 99.8313 6.29967 99.398 6.135C98.9647 5.96167 98.4663 5.875 97.903 5.875C97.2097 5.875 96.5987 6.00067 96.07 6.252C95.5413 6.49467 95.095 6.811 94.731 7.201C94.367 7.591 94.0897 8.01133 93.899 8.462C93.717 8.91267 93.626 9.34167 93.626 9.749C93.626 10.1823 93.678 10.5463 93.782 10.841C93.886 11.127 94.0117 11.3437 94.159 11.491C94.315 11.6297 94.4797 11.699 94.653 11.699C94.835 11.699 95.0127 11.608 95.186 11.426C95.368 11.2353 95.5457 10.9493 95.719 10.568C95.8923 10.1867 96.0657 9.70567 96.239 9.125C96.4383 8.501 96.6073 7.83367 96.746 7.123C96.8847 6.41233 96.9843 5.719 97.045 5.043L98.813 5.095ZM110.305 4.445C110.036 4.835 109.716 5.238 109.343 5.654C108.97 6.07 108.554 6.48167 108.095 6.889C107.644 7.29633 107.163 7.68633 106.652 8.059C106.149 8.423 105.625 8.75667 105.079 9.06C105.018 8.93867 104.932 8.8 104.819 8.644C104.706 8.488 104.585 8.33633 104.455 8.189C104.325 8.04167 104.204 7.91167 104.091 7.799C104.845 7.409 105.569 6.941 106.262 6.395C106.955 5.84033 107.575 5.25533 108.121 4.64C108.676 4.02467 109.113 3.444 109.434 2.898H111.046C111.401 3.40933 111.796 3.90333 112.229 4.38C112.662 4.85667 113.122 5.29867 113.607 5.706C114.092 6.11333 114.595 6.48167 115.115 6.811C115.635 7.14033 116.159 7.41767 116.688 7.643C116.489 7.84233 116.298 8.06767 116.116 8.319C115.943 8.56167 115.782 8.80433 115.635 9.047C115.124 8.761 114.612 8.44033 114.101 8.085C113.598 7.721 113.109 7.33533 112.632 6.928C112.155 6.52067 111.718 6.10467 111.319 5.68C110.92 5.25533 110.582 4.84367 110.305 4.445ZM110.396 9.398H114.751V10.789H110.396V9.398ZM104.819 13.402H115.934V14.819H104.819V13.402ZM109.616 6.616H111.267V14.156H109.616V6.616ZM106.236 8.865H107.77V14.13H106.236V8.865ZM117.338 10.906H128.934V12.193H117.338V10.906ZM117.377 5.082H128.895V6.356H117.377V5.082ZM117.91 7.409H128.388V8.631H117.91V7.409ZM118.547 9.203H127.79V10.334H118.547V9.203ZM122.317 8.02H123.864V15.17H122.317V8.02ZM121.186 2.937H122.642V5.693H121.186V2.937ZM123.604 2.937H125.073V5.602H123.604V2.937ZM122.031 11.478L123.266 12.037C122.859 12.4877 122.365 12.908 121.784 13.298C121.212 13.6793 120.597 14.013 119.938 14.299C119.279 14.5937 118.616 14.832 117.949 15.014C117.88 14.884 117.784 14.7367 117.663 14.572C117.55 14.416 117.429 14.26 117.299 14.104C117.178 13.948 117.061 13.818 116.948 13.714C117.598 13.5753 118.244 13.3977 118.885 13.181C119.535 12.9643 120.133 12.7087 120.679 12.414C121.225 12.1193 121.676 11.8073 122.031 11.478ZM124.176 11.439C124.445 11.699 124.765 11.946 125.138 12.18C125.511 12.4053 125.918 12.6133 126.36 12.804C126.811 12.986 127.283 13.1463 127.777 13.285C128.28 13.4237 128.787 13.532 129.298 13.61C129.177 13.7313 129.047 13.87 128.908 14.026C128.778 14.1907 128.652 14.3597 128.531 14.533C128.418 14.715 128.323 14.8797 128.245 15.027C127.725 14.897 127.214 14.728 126.711 14.52C126.217 14.3207 125.745 14.091 125.294 13.831C124.843 13.571 124.419 13.2807 124.02 12.96C123.621 12.6393 123.27 12.297 122.967 11.933L124.176 11.439ZM126.594 3.054L128.219 3.444C128.02 3.79933 127.816 4.146 127.608 4.484C127.4 4.81333 127.209 5.095 127.036 5.329L125.762 4.939C125.866 4.76567 125.97 4.57067 126.074 4.354C126.178 4.12867 126.273 3.90333 126.36 3.678C126.455 3.444 126.533 3.236 126.594 3.054ZM124.878 5.836L126.529 6.226C126.347 6.52933 126.174 6.824 126.009 7.11C125.844 7.38733 125.697 7.62567 125.567 7.825L124.241 7.461C124.354 7.21833 124.471 6.94967 124.592 6.655C124.713 6.35167 124.809 6.07867 124.878 5.836ZM118.3 3.47L119.639 3.015C119.83 3.28367 120.02 3.59567 120.211 3.951C120.402 4.29767 120.54 4.59667 120.627 4.848L119.223 5.368C119.154 5.108 119.028 4.80033 118.846 4.445C118.664 4.08967 118.482 3.76467 118.3 3.47ZM119.951 6.382L121.472 6.135C121.585 6.317 121.693 6.525 121.797 6.759C121.91 6.98433 121.992 7.18367 122.044 7.357L120.458 7.63C120.415 7.46533 120.345 7.26167 120.25 7.019C120.155 6.77633 120.055 6.564 119.951 6.382ZM131.794 4.185C132.002 4.21967 132.232 4.24567 132.483 4.263C132.734 4.28033 132.968 4.289 133.185 4.289C133.35 4.289 133.575 4.289 133.861 4.289C134.147 4.289 134.463 4.289 134.81 4.289C135.157 4.289 135.499 4.289 135.837 4.289C136.184 4.289 136.5 4.289 136.786 4.289C137.072 4.289 137.289 4.289 137.436 4.289C137.661 4.289 137.895 4.28033 138.138 4.263C138.381 4.24567 138.615 4.21967 138.84 4.185V5.862C138.615 5.84467 138.381 5.836 138.138 5.836C137.895 5.82733 137.661 5.823 137.436 5.823C137.289 5.823 137.072 5.823 136.786 5.823C136.5 5.823 136.184 5.823 135.837 5.823C135.499 5.823 135.157 5.823 134.81 5.823C134.472 5.823 134.156 5.823 133.861 5.823C133.575 5.823 133.35 5.823 133.185 5.823C132.96 5.823 132.721 5.82733 132.47 5.836C132.219 5.836 131.993 5.84467 131.794 5.862V4.185ZM130.286 7.513C130.477 7.539 130.68 7.56067 130.897 7.578C131.122 7.58667 131.335 7.591 131.534 7.591C131.647 7.591 131.872 7.591 132.21 7.591C132.548 7.591 132.955 7.591 133.432 7.591C133.917 7.591 134.433 7.591 134.979 7.591C135.525 7.591 136.071 7.591 136.617 7.591C137.172 7.591 137.687 7.591 138.164 7.591C138.641 7.591 139.044 7.591 139.373 7.591C139.711 7.591 139.936 7.591 140.049 7.591C140.188 7.591 140.374 7.58667 140.608 7.578C140.851 7.56067 141.059 7.539 141.232 7.513V9.203C141.076 9.18567 140.885 9.177 140.66 9.177C140.435 9.16833 140.231 9.164 140.049 9.164C139.936 9.164 139.711 9.164 139.373 9.164C139.044 9.164 138.641 9.164 138.164 9.164C137.687 9.164 137.172 9.164 136.617 9.164C136.071 9.164 135.525 9.164 134.979 9.164C134.433 9.164 133.917 9.164 133.432 9.164C132.955 9.164 132.548 9.164 132.21 9.164C131.872 9.164 131.647 9.164 131.534 9.164C131.343 9.164 131.131 9.16833 130.897 9.177C130.672 9.18567 130.468 9.19867 130.286 9.216V7.513ZM136.942 8.423C136.942 9.26367 136.868 10.022 136.721 10.698C136.574 11.3653 136.361 11.9677 136.084 12.505C135.937 12.7997 135.729 13.103 135.46 13.415C135.2 13.727 134.901 14.0217 134.563 14.299C134.225 14.5763 133.861 14.8103 133.471 15.001L131.95 13.896C132.409 13.7227 132.851 13.467 133.276 13.129C133.701 12.7823 134.043 12.4183 134.303 12.037C134.632 11.543 134.853 10.9927 134.966 10.386C135.079 9.77933 135.135 9.125 135.135 8.423H136.942ZM139.62 3.288C139.733 3.444 139.85 3.63033 139.971 3.847C140.101 4.06367 140.222 4.28033 140.335 4.497C140.456 4.71367 140.56 4.90433 140.647 5.069L139.607 5.524C139.468 5.25533 139.304 4.952 139.113 4.614C138.931 4.26733 138.753 3.96833 138.58 3.717L139.62 3.288ZM141.154 2.703C141.267 2.86767 141.388 3.06267 141.518 3.288C141.648 3.50467 141.774 3.72133 141.895 3.938C142.025 4.146 142.129 4.32367 142.207 4.471L141.167 4.926C141.037 4.64867 140.872 4.341 140.673 4.003C140.482 3.665 140.3 3.37467 140.127 3.132L141.154 2.703ZM143.286 7.981C143.442 7.98967 143.641 8.00267 143.884 8.02C144.127 8.02867 144.378 8.03733 144.638 8.046C144.907 8.05467 145.154 8.059 145.379 8.059C145.596 8.059 145.864 8.059 146.185 8.059C146.506 8.059 146.852 8.059 147.225 8.059C147.606 8.059 147.996 8.059 148.395 8.059C148.802 8.059 149.205 8.059 149.604 8.059C150.003 8.059 150.38 8.059 150.735 8.059C151.09 8.059 151.407 8.059 151.684 8.059C151.97 8.059 152.195 8.059 152.36 8.059C152.663 8.059 152.949 8.05033 153.218 8.033C153.487 8.007 153.708 7.98967 153.881 7.981V10.022C153.734 10.0133 153.513 10.0003 153.218 9.983C152.923 9.96567 152.637 9.957 152.36 9.957C152.195 9.957 151.97 9.957 151.684 9.957C151.398 9.957 151.077 9.957 150.722 9.957C150.367 9.957 149.99 9.957 149.591 9.957C149.201 9.957 148.802 9.957 148.395 9.957C147.988 9.957 147.593 9.957 147.212 9.957C146.839 9.957 146.493 9.957 146.172 9.957C145.86 9.957 145.596 9.957 145.379 9.957C145.006 9.957 144.625 9.96567 144.235 9.983C143.845 9.99167 143.529 10.0047 143.286 10.022V7.981ZM160.407 7.916C160.806 8.14133 161.239 8.41 161.707 8.722C162.184 9.02533 162.665 9.34167 163.15 9.671C163.635 10.0003 164.09 10.321 164.515 10.633C164.948 10.945 165.312 11.2223 165.607 11.465L164.372 12.934C164.086 12.674 163.731 12.375 163.306 12.037C162.89 11.6903 162.439 11.3393 161.954 10.984C161.469 10.62 160.988 10.2733 160.511 9.944C160.043 9.61467 159.623 9.333 159.25 9.099L160.407 7.916ZM166.517 5.706C166.439 5.82733 166.361 5.97033 166.283 6.135C166.205 6.29967 166.14 6.46433 166.088 6.629C165.958 7.02767 165.78 7.474 165.555 7.968C165.338 8.45333 165.078 8.95167 164.775 9.463C164.472 9.96567 164.125 10.4597 163.735 10.945C163.12 11.7077 162.379 12.4313 161.512 13.116C160.654 13.8007 159.601 14.3813 158.353 14.858L156.845 13.545C157.755 13.2677 158.544 12.9383 159.211 12.557C159.878 12.1757 160.455 11.7683 160.94 11.335C161.434 10.9017 161.863 10.4683 162.227 10.035C162.522 9.697 162.799 9.32 163.059 8.904C163.328 8.47933 163.557 8.059 163.748 7.643C163.947 7.21833 164.086 6.84133 164.164 6.512H159.77L160.368 5.03H164.06C164.268 5.03 164.472 5.017 164.671 4.991C164.879 4.965 165.052 4.93033 165.191 4.887L166.517 5.706ZM162.227 3.704C162.071 3.92933 161.915 4.172 161.759 4.432C161.612 4.692 161.499 4.89133 161.421 5.03C161.126 5.55 160.754 6.10467 160.303 6.694C159.852 7.27467 159.345 7.84233 158.782 8.397C158.227 8.95167 157.638 9.44567 157.014 9.879L155.61 8.8C156.373 8.32333 157.018 7.825 157.547 7.305C158.084 6.77633 158.531 6.26933 158.886 5.784C159.241 5.29 159.527 4.85233 159.744 4.471C159.848 4.315 159.956 4.107 160.069 3.847C160.19 3.57833 160.281 3.33567 160.342 3.119L162.227 3.704Z" fill="#222222"/>
<path d="M57.489 31.571H71.118V33.965H57.489V31.571ZM58.539 26.174H70.11V28.589H58.539V26.174ZM62.928 23.15H65.532V33.314H62.928V23.15ZM57.51 39.488C58.448 39.446 59.533 39.397 60.765 39.341C62.011 39.285 63.327 39.215 64.713 39.131C66.113 39.047 67.506 38.97 68.892 38.9L68.871 41.189C67.569 41.287 66.253 41.392 64.923 41.504C63.607 41.616 62.34 41.714 61.122 41.798C59.918 41.882 58.819 41.966 57.825 42.05L57.51 39.488ZM65.553 36.59L67.716 35.435C68.248 36.051 68.766 36.723 69.27 37.451C69.788 38.179 70.257 38.9 70.677 39.614C71.097 40.328 71.412 40.986 71.622 41.588L69.228 42.89C69.046 42.316 68.759 41.665 68.367 40.937C67.975 40.209 67.534 39.467 67.044 38.711C66.554 37.941 66.057 37.234 65.553 36.59ZM61.29 33.272L64.104 34.007C63.796 34.805 63.46 35.624 63.096 36.464C62.746 37.304 62.389 38.102 62.025 38.858C61.675 39.614 61.339 40.286 61.017 40.874L58.77 40.139C58.994 39.677 59.225 39.166 59.463 38.606C59.701 38.032 59.932 37.437 60.156 36.821C60.394 36.205 60.604 35.596 60.786 34.994C60.982 34.378 61.15 33.804 61.29 33.272ZM52.806 25.103L54.192 23.234C54.654 23.402 55.137 23.605 55.641 23.843C56.145 24.081 56.628 24.333 57.09 24.599C57.552 24.865 57.93 25.124 58.224 25.376L56.754 27.434C56.474 27.182 56.11 26.916 55.662 26.636C55.228 26.342 54.759 26.062 54.255 25.796C53.751 25.516 53.268 25.285 52.806 25.103ZM51.609 30.815L52.911 28.904C53.359 29.058 53.842 29.247 54.36 29.471C54.878 29.695 55.368 29.933 55.83 30.185C56.306 30.423 56.691 30.654 56.985 30.878L55.599 32.999C55.319 32.761 54.948 32.509 54.486 32.243C54.038 31.977 53.562 31.718 53.058 31.466C52.554 31.214 52.071 30.997 51.609 30.815ZM52.176 40.979C52.54 40.447 52.932 39.817 53.352 39.089C53.786 38.361 54.22 37.591 54.654 36.779C55.102 35.967 55.522 35.155 55.914 34.343L57.804 35.96C57.468 36.688 57.104 37.437 56.712 38.207C56.334 38.963 55.942 39.712 55.536 40.454C55.144 41.196 54.752 41.91 54.36 42.596L52.176 40.979ZM80.736 23.654H83.634C83.606 24.242 83.557 24.998 83.487 25.922C83.417 26.846 83.284 27.875 83.088 29.009C82.906 30.129 82.626 31.305 82.248 32.537C81.87 33.769 81.352 35.001 80.694 36.233C80.05 37.451 79.224 38.62 78.216 39.74C77.222 40.846 76.011 41.833 74.583 42.701C74.359 42.379 74.051 42.036 73.659 41.672C73.281 41.308 72.882 40.979 72.462 40.685C73.862 39.901 75.038 39.005 75.99 37.997C76.942 36.989 77.719 35.932 78.321 34.826C78.923 33.706 79.385 32.586 79.707 31.466C80.029 30.332 80.26 29.261 80.4 28.253C80.54 27.245 80.624 26.342 80.652 25.544C80.68 24.746 80.708 24.116 80.736 23.654ZM83.529 24.221C83.543 24.487 83.571 24.907 83.613 25.481C83.655 26.055 83.739 26.741 83.865 27.539C83.991 28.337 84.18 29.205 84.432 30.143C84.698 31.067 85.048 32.019 85.482 32.999C85.916 33.979 86.455 34.938 87.099 35.876C87.743 36.814 88.52 37.682 89.43 38.48C90.354 39.278 91.432 39.971 92.664 40.559C92.258 40.853 91.88 41.196 91.53 41.588C91.194 41.98 90.921 42.351 90.711 42.701C89.423 42.057 88.296 41.294 87.33 40.412C86.378 39.516 85.559 38.55 84.873 37.514C84.201 36.464 83.641 35.4 83.193 34.322C82.745 33.244 82.381 32.187 82.101 31.151C81.835 30.101 81.632 29.128 81.492 28.232C81.352 27.336 81.254 26.559 81.198 25.901C81.156 25.243 81.121 24.767 81.093 24.473L83.529 24.221ZM106.062 31.613H108.183V33.923H106.062V31.613ZM108.267 26.636L110.178 27.182C109.94 27.686 109.709 28.197 109.485 28.715C109.261 29.219 109.065 29.653 108.897 30.017L107.448 29.513C107.56 29.247 107.665 28.946 107.763 28.61C107.875 28.26 107.973 27.917 108.057 27.581C108.155 27.231 108.225 26.916 108.267 26.636ZM104.361 27.266L105.852 26.762C106.062 27.168 106.237 27.623 106.377 28.127C106.531 28.631 106.636 29.065 106.692 29.429L105.096 30.017C105.068 29.639 104.977 29.191 104.823 28.673C104.683 28.155 104.529 27.686 104.361 27.266ZM101.526 24.074H111.312V26.258H103.773V42.932H101.526V24.074ZM110.556 24.074H112.845V40.391C112.845 40.965 112.782 41.413 112.656 41.735C112.53 42.057 112.285 42.309 111.921 42.491C111.585 42.673 111.151 42.785 110.619 42.827C110.101 42.883 109.478 42.904 108.75 42.89C108.708 42.596 108.617 42.239 108.477 41.819C108.351 41.399 108.218 41.049 108.078 40.769C108.498 40.783 108.911 40.797 109.317 40.811C109.737 40.811 110.017 40.811 110.157 40.811C110.311 40.797 110.416 40.762 110.472 40.706C110.528 40.636 110.556 40.531 110.556 40.391V24.074ZM104.298 29.807H110.01V31.697H104.298V29.807ZM104.235 33.335H110.052V35.225H104.235V33.335ZM104.907 34.343H107.028V37.094C107.028 37.346 107.042 37.521 107.07 37.619C107.112 37.717 107.196 37.766 107.322 37.766C107.392 37.766 107.49 37.766 107.616 37.766C107.742 37.766 107.875 37.766 108.015 37.766C108.169 37.766 108.309 37.766 108.435 37.766C108.575 37.766 108.673 37.766 108.729 37.766C108.883 37.766 109.065 37.759 109.275 37.745C109.485 37.731 109.66 37.703 109.8 37.661C109.828 37.913 109.856 38.242 109.884 38.648C109.912 39.04 109.94 39.362 109.968 39.614C109.814 39.67 109.632 39.712 109.422 39.74C109.212 39.754 108.988 39.761 108.75 39.761C108.68 39.761 108.582 39.761 108.456 39.761C108.33 39.761 108.19 39.761 108.036 39.761C107.882 39.761 107.742 39.761 107.616 39.761C107.49 39.761 107.399 39.761 107.343 39.761C106.685 39.761 106.181 39.677 105.831 39.509C105.481 39.327 105.236 39.04 105.096 38.648C104.97 38.256 104.907 37.731 104.907 37.073V34.343ZM96.759 23.171L98.943 23.948C98.663 24.494 98.369 25.054 98.061 25.628C97.753 26.188 97.452 26.734 97.158 27.266C96.864 27.784 96.584 28.239 96.318 28.631L94.638 27.938C94.89 27.504 95.149 27.014 95.415 26.468C95.681 25.922 95.933 25.355 96.171 24.767C96.423 24.179 96.619 23.647 96.759 23.171ZM99.132 25.67L101.19 26.594C100.672 27.378 100.112 28.204 99.51 29.072C98.908 29.94 98.306 30.773 97.704 31.571C97.102 32.369 96.528 33.069 95.982 33.671L94.533 32.873C94.925 32.397 95.331 31.865 95.751 31.277C96.185 30.675 96.605 30.052 97.011 29.408C97.431 28.75 97.823 28.099 98.187 27.455C98.551 26.811 98.866 26.216 99.132 25.67ZM93.525 28.085L94.764 26.384C95.114 26.72 95.478 27.084 95.856 27.476C96.234 27.868 96.584 28.26 96.906 28.652C97.228 29.044 97.466 29.408 97.62 29.744L96.276 31.655C96.122 31.319 95.891 30.941 95.583 30.521C95.289 30.101 94.96 29.681 94.596 29.261C94.232 28.827 93.875 28.435 93.525 28.085ZM98.418 30.689L100.182 29.975C100.462 30.437 100.728 30.941 100.98 31.487C101.232 32.033 101.456 32.565 101.652 33.083C101.848 33.587 101.988 34.042 102.072 34.448L100.161 35.288C100.105 34.882 99.986 34.413 99.804 33.881C99.622 33.349 99.412 32.81 99.174 32.264C98.936 31.704 98.684 31.179 98.418 30.689ZM93.462 32.369C94.4 32.327 95.506 32.271 96.78 32.201C98.054 32.117 99.349 32.033 100.665 31.949L100.707 34.007C99.475 34.105 98.243 34.203 97.011 34.301C95.793 34.385 94.694 34.469 93.714 34.553L93.462 32.369ZM99.006 35.96L100.749 35.435C101.001 36.009 101.225 36.646 101.421 37.346C101.631 38.046 101.764 38.641 101.82 39.131L99.951 39.74C99.909 39.236 99.797 38.634 99.615 37.934C99.447 37.22 99.244 36.562 99.006 35.96ZM94.365 35.498L96.381 35.855C96.269 36.863 96.101 37.857 95.877 38.837C95.667 39.803 95.415 40.622 95.121 41.294C94.981 41.196 94.799 41.091 94.575 40.979C94.351 40.867 94.12 40.762 93.882 40.664C93.644 40.552 93.441 40.468 93.273 40.412C93.581 39.782 93.819 39.026 93.987 38.144C94.155 37.262 94.281 36.38 94.365 35.498ZM96.654 33.503H98.838V42.89H96.654V33.503ZM127.986 25.67V27.077H130.548V25.67H127.986ZM123.135 25.67V27.077H125.676V25.67H123.135ZM118.389 25.67V27.077H120.846V25.67H118.389ZM115.974 23.864H133.089V28.883H115.974V23.864ZM118.326 36.149H120.615V42.89H118.326V36.149ZM128.616 32.537H130.821V41.105H128.616V32.537ZM120.888 33.839L122.652 33.209C122.974 33.797 123.282 34.441 123.576 35.141C123.87 35.841 124.073 36.45 124.185 36.968L122.316 37.682C122.232 37.178 122.05 36.569 121.77 35.855C121.504 35.127 121.21 34.455 120.888 33.839ZM115.05 31.802L116.331 30.269C116.723 30.521 117.129 30.808 117.549 31.13C117.983 31.438 118.389 31.753 118.767 32.075C119.159 32.383 119.467 32.677 119.691 32.957L118.326 34.679C118.116 34.399 117.829 34.091 117.465 33.755C117.101 33.405 116.702 33.062 116.268 32.726C115.848 32.376 115.442 32.068 115.05 31.802ZM120.72 38.207L122.547 37.556C122.855 38.074 123.149 38.662 123.429 39.32C123.709 39.964 123.905 40.51 124.017 40.958L122.085 41.714C121.987 41.252 121.805 40.692 121.539 40.034C121.287 39.376 121.014 38.767 120.72 38.207ZM118.515 28.358L120.531 29.261C120.111 29.835 119.67 30.409 119.208 30.983C118.76 31.557 118.347 32.047 117.969 32.453L116.331 31.655C116.583 31.361 116.842 31.025 117.108 30.647C117.388 30.269 117.647 29.877 117.885 29.471C118.137 29.065 118.347 28.694 118.515 28.358ZM121.308 30.017L123.261 31.004C122.743 31.634 122.176 32.278 121.56 32.936C120.944 33.594 120.328 34.224 119.712 34.826C119.11 35.414 118.536 35.939 117.99 36.401L116.415 35.498C116.961 35.022 117.535 34.469 118.137 33.839C118.739 33.209 119.32 32.565 119.88 31.907C120.44 31.235 120.916 30.605 121.308 30.017ZM114.861 35.12C115.883 35.106 117.094 35.085 118.494 35.057C119.894 35.029 121.322 34.994 122.778 34.952L122.736 36.863C121.364 36.933 119.999 36.996 118.641 37.052C117.297 37.108 116.086 37.157 115.008 37.199L114.861 35.12ZM116.058 37.64L118.137 38.102C117.955 38.886 117.703 39.663 117.381 40.433C117.073 41.203 116.751 41.854 116.415 42.386C116.275 42.288 116.086 42.169 115.848 42.029C115.624 41.903 115.393 41.777 115.155 41.651C114.917 41.539 114.707 41.448 114.525 41.378C114.875 40.902 115.176 40.328 115.428 39.656C115.694 38.984 115.904 38.312 116.058 37.64ZM125.676 28.799L127.902 29.345C127.496 30.423 126.971 31.459 126.327 32.453C125.697 33.433 125.032 34.266 124.332 34.952C124.192 34.812 124.01 34.658 123.786 34.49C123.562 34.308 123.331 34.133 123.093 33.965C122.855 33.783 122.652 33.636 122.484 33.524C123.17 32.95 123.786 32.243 124.332 31.403C124.892 30.563 125.34 29.695 125.676 28.799ZM129.603 29.009L131.934 29.555C131.626 30.157 131.304 30.759 130.968 31.361C130.632 31.949 130.331 32.46 130.065 32.894L128.238 32.348C128.49 31.872 128.742 31.326 128.994 30.71C129.246 30.08 129.449 29.513 129.603 29.009ZM126.831 31.193H133.929V33.188H126.831V42.89H124.542V32.369L125.697 31.193H126.831ZM125.739 34.322H133.362V36.107H125.739V34.322ZM125.739 37.241H133.362V39.026H125.739V37.241ZM125.613 40.181H134.223V42.197H125.613V40.181ZM144.135 23.171H146.739V26.111H144.135V23.171ZM144.135 35.456H146.739V42.89H144.135V35.456ZM136.029 36.8H155.013V39.131H136.029V36.8ZM136.722 25.208H154.362V27.497H136.722V25.208ZM152.241 27.749L154.488 28.82C153.956 29.31 153.403 29.786 152.829 30.248C152.255 30.696 151.73 31.088 151.254 31.424L149.406 30.437C149.728 30.199 150.057 29.926 150.393 29.618C150.743 29.31 151.079 28.995 151.401 28.673C151.737 28.337 152.017 28.029 152.241 27.749ZM143.946 26.846L146.067 27.644C145.647 28.19 145.213 28.736 144.765 29.282C144.331 29.828 143.932 30.29 143.568 30.668L141.993 29.975C142.217 29.681 142.448 29.352 142.686 28.988C142.924 28.624 143.155 28.253 143.379 27.875C143.603 27.497 143.792 27.154 143.946 26.846ZM147.096 28.379L149.049 29.282C148.475 29.954 147.845 30.654 147.159 31.382C146.473 32.096 145.787 32.782 145.101 33.44C144.415 34.084 143.764 34.651 143.148 35.141L141.678 34.322C142.294 33.804 142.931 33.209 143.589 32.537C144.261 31.851 144.905 31.144 145.521 30.416C146.137 29.688 146.662 29.009 147.096 28.379ZM140.943 30.206L142.119 28.778C142.525 29.016 142.959 29.289 143.421 29.597C143.883 29.905 144.324 30.213 144.744 30.521C145.164 30.815 145.507 31.088 145.773 31.34L144.534 32.978C144.282 32.712 143.953 32.418 143.547 32.096C143.141 31.76 142.707 31.431 142.245 31.109C141.783 30.773 141.349 30.472 140.943 30.206ZM140.754 33.566C141.454 33.538 142.252 33.51 143.148 33.482C144.044 33.44 144.996 33.398 146.004 33.356C147.012 33.3 148.027 33.251 149.049 33.209L149.028 34.994C147.628 35.106 146.235 35.218 144.849 35.33C143.463 35.442 142.217 35.533 141.111 35.603L140.754 33.566ZM146.529 32.159L148.314 31.403C148.622 31.795 148.923 32.222 149.217 32.684C149.525 33.132 149.805 33.58 150.057 34.028C150.309 34.476 150.491 34.882 150.603 35.246L148.713 36.107C148.601 35.743 148.426 35.337 148.188 34.889C147.964 34.427 147.705 33.958 147.411 33.482C147.131 32.992 146.837 32.551 146.529 32.159ZM135.798 33.944C136.47 33.734 137.275 33.447 138.213 33.083C139.165 32.719 140.131 32.355 141.111 31.991L141.552 33.839C140.796 34.217 140.012 34.595 139.2 34.973C138.402 35.351 137.667 35.687 136.995 35.981L135.798 33.944ZM136.428 29.303L138.108 27.959C138.472 28.155 138.857 28.386 139.263 28.652C139.683 28.904 140.075 29.163 140.439 29.429C140.817 29.695 141.125 29.94 141.363 30.164L139.599 31.655C139.389 31.431 139.102 31.179 138.738 30.899C138.388 30.619 138.01 30.339 137.604 30.059C137.198 29.779 136.806 29.527 136.428 29.303ZM148.944 33.209L150.666 31.823C151.142 32.061 151.66 32.341 152.22 32.663C152.78 32.985 153.312 33.314 153.816 33.65C154.32 33.972 154.74 34.266 155.076 34.532L153.249 36.065C152.955 35.785 152.563 35.477 152.073 35.141C151.583 34.805 151.065 34.462 150.519 34.112C149.973 33.762 149.448 33.461 148.944 33.209Z" fill="#222222"/>
<path d="M87.6053 88H79.9353L64.9441 61.9272V88H57.7971V51.2939H65.8406L80.4583 76.9185V51.2939H87.6053V88ZM116.841 64.293C119.132 67.165 120.277 70.5601 120.277 74.478C120.277 78.4624 119.132 81.874 116.841 84.7129C114.55 87.5352 111.072 88.9463 106.407 88.9463C101.741 88.9463 98.2635 87.5352 95.9724 84.7129C93.6814 81.874 92.5359 78.4624 92.5359 74.478C92.5359 70.5601 93.6814 67.165 95.9724 64.293C98.2635 61.4209 101.741 59.9849 106.407 59.9849C111.072 59.9849 114.55 61.4209 116.841 64.293ZM106.382 65.9863C104.306 65.9863 102.704 66.7251 101.575 68.2026C100.463 69.6636 99.907 71.7554 99.907 74.478C99.907 77.2007 100.463 79.3008 101.575 80.7783C102.704 82.2559 104.306 82.9946 106.382 82.9946C108.457 82.9946 110.051 82.2559 111.163 80.7783C112.275 79.3008 112.831 77.2007 112.831 74.478C112.831 71.7554 112.275 69.6636 111.163 68.2026C110.051 66.7251 108.457 65.9863 106.382 65.9863ZM124.238 80.5791H131.783V88H124.238V80.5791ZM145.874 88H138.602V63.0977H130.111V58.2666C132.352 58.167 133.921 58.0176 134.817 57.8184C136.245 57.5029 137.407 56.8721 138.303 55.9258C138.918 55.2783 139.383 54.415 139.698 53.3359C139.881 52.6885 139.972 52.207 139.972 51.8916H145.874V88Z" fill="#A7AC50"/>
</svg>
