<svg width="204" height="110" viewBox="0 0 204 110" fill="none" xmlns="http://www.w3.org/2000/svg">
<path d="M9.97875 35.4005C10.645 33.1924 11.6333 30.8263 12.9499 28.3023C13.0983 28.0212 13.1236 27.6895 13.0257 27.3862C11.3838 22.4298 11.7817 16.9206 15.6149 13.1804C15.779 13.0193 16.0537 13.0919 16.1201 13.3099C16.2085 13.6005 16.2716 13.9764 16.3095 14.4376C16.5558 17.7261 16.2432 21.0272 15.3686 24.3283C15.3559 24.3726 15.3812 24.4168 15.4222 24.4358C15.4665 24.4547 15.517 24.4358 15.5391 24.3947C16.7294 22.2276 18.1566 20.724 19.1544 18.4179C20.8721 14.4282 24.3579 11.1334 28.5511 10.0182C28.69 9.9835 28.8005 9.9835 28.8921 10.0182C29.0089 10.0625 29.0657 10.192 29.0278 10.3152C27.3733 14.9525 23.5622 18.0799 19.5838 21.0272C19.5428 21.0588 19.508 21.0904 19.4765 21.1315L17.162 24.3062C17.1273 24.3568 17.1304 24.4263 17.1746 24.4673C17.2189 24.5116 17.2915 24.5179 17.3388 24.4768C19.7417 22.5656 22.4761 21.6717 25.5451 21.7917C25.8988 21.8043 26.104 22.1992 25.9177 22.4993C23.7517 25.9489 19.0944 28.2549 15.2265 29.0921C14.355 29.2816 14.0551 29.6923 13.7172 30.4409C12.8047 32.4564 11.8859 34.6613 10.9607 37.0621C10.9481 37.0937 10.9607 37.1285 10.9923 37.1474C11.0239 37.1664 11.0586 37.1569 11.0807 37.1285C11.4343 36.6894 11.8448 36.1587 12.3184 35.5363C13.9919 33.3251 17.2852 30.88 20.2374 30.9306C20.4079 30.9337 20.5184 31.1138 20.449 31.2654C18.3429 35.827 15.0591 39.0302 10.6071 40.8845C10.2282 41.0424 9.95033 41.3773 9.86823 41.7785C9.36304 44.3467 9.0536 47.1898 8.94309 50.3013C8.94309 50.3582 8.98414 50.4119 9.04097 50.4214C9.09781 50.4308 9.1578 50.3929 9.17043 50.3361C10.1398 46.7633 11.5228 43.9171 14.7087 41.9648C15.3023 41.6015 15.9622 41.3457 16.6821 41.194C16.8526 41.1593 17.001 41.3046 16.9694 41.4752C16.0001 46.5453 13.4836 50.6078 9.42303 53.653C9.25253 53.7825 9.1578 53.9847 9.16412 54.1995C9.24621 57.0678 9.60616 59.8319 10.2503 62.4791C10.2629 62.5328 10.3134 62.5676 10.3671 62.5644C10.4208 62.5613 10.4618 62.5139 10.465 62.4602C10.746 58.1956 11.6112 54.8692 15.2802 52.4305C15.4443 52.3199 15.6748 52.3957 15.7412 52.5821C16.319 54.1616 15.637 57.2763 15.4949 58.0787C14.9613 61.0544 13.6509 63.6069 11.5638 65.7234C11.3459 65.9477 11.2638 66.273 11.3523 66.5731C12.1606 69.3246 13.1552 71.9339 14.3329 74.4011C14.3519 74.4358 14.3898 74.4548 14.4308 74.4421C14.4718 74.4326 14.4939 74.3916 14.4845 74.3537C13.7993 70.6608 14.2508 65.8845 17.1147 63.1267C17.3388 62.9119 17.7146 63.0383 17.7619 63.3447C18.3745 67.3187 18.7818 70.1838 17.7935 73.8356C17.683 74.2526 17.3136 75.4783 16.6916 77.5189C16.5621 77.9454 16.6252 78.4003 16.8621 78.7762L20.6921 84.7972C20.7142 84.8288 20.7552 84.8414 20.79 84.8256C20.8247 84.8067 20.8405 84.7688 20.8247 84.7309C19.4922 81.3381 19.2712 77.0325 20.7047 73.4913C20.8247 73.1912 21.2415 73.1596 21.4057 73.4376C23.2812 76.5618 24.1337 79.9861 23.9601 83.7042C23.919 84.6045 23.8401 85.9565 23.717 87.7698C23.6885 88.1773 24.0138 88.7111 24.6831 89.3587C26.2587 90.8845 27.9448 92.3945 29.7446 93.8887C29.7951 93.9297 29.8646 93.9298 29.9088 93.8855C29.9593 93.8413 29.9625 93.775 29.9277 93.7213C27.6764 90.5402 26.8018 86.9169 27.2912 82.8576C27.3039 82.7376 27.4491 82.6838 27.5407 82.7628C31.5665 86.2408 33.1199 90.9319 33.1326 96.1189C33.1326 96.3906 33.2683 96.6433 33.4894 96.7949C36.0343 98.5229 38.8129 100.109 41.8283 101.543C41.9009 101.574 41.9767 101.565 41.9704 101.521V101.47C41.9672 101.429 41.9577 101.398 41.9419 101.388C38.5477 98.7977 36.1132 95.5693 35.9964 91.1499C35.9964 91.0235 36.1164 90.9351 36.2332 90.9793C36.7889 91.1909 37.3636 91.5163 37.9698 91.9586C41.3894 94.4573 43.7322 97.6731 44.6227 101.865C44.7205 102.329 45.0647 102.705 45.5225 102.844L54.6256 105.602C54.8971 105.684 55.055 105.969 54.9824 106.243L54.9413 106.408C54.815 106.818 54.3951 107.065 53.9751 106.973C50.8334 106.256 47.8338 105.416 44.97 104.449C44.2059 104.19 43.5459 104.386 42.7376 104.784C38.1435 107.052 32.7474 106.145 28.5163 103.527C28.3332 103.416 28.3332 103.151 28.5163 103.04C29.6657 102.352 30.8876 101.988 32.179 101.957C35.3523 101.881 38.1751 102.118 40.6537 102.667C40.7105 102.68 40.7705 102.648 40.7895 102.592L40.821 102.484C40.821 102.484 40.821 102.456 40.8084 102.453C38.1972 101.338 35.6238 99.9286 33.0852 98.2228C32.82 98.0427 32.4948 97.9795 32.1822 98.049C27.4144 99.101 22.956 98.286 18.8134 95.5977C18.0587 95.1049 17.443 94.5426 16.9789 93.9045C16.8494 93.7307 16.9473 93.478 17.162 93.4338C20.6795 92.7136 24.0548 93.1842 27.2912 94.849C27.708 95.0638 28.5574 95.5061 29.8456 96.1789C29.874 96.1916 29.8993 96.1821 29.9183 96.16C29.9309 96.1379 29.9309 96.1063 29.9088 96.0873L22.8771 89.8357C22.716 89.6936 22.5045 89.6083 22.2898 89.602C16.9157 89.4503 11.3554 86.3388 8.44421 81.752C8.34001 81.594 8.45684 81.3855 8.64629 81.3855C12.9152 81.4045 16.0727 83.3188 19.3028 85.9376C19.3344 85.966 19.3849 85.966 19.4133 85.9344C19.4449 85.906 19.448 85.8618 19.4259 85.827L15.037 78.9278C15.0086 78.8836 14.9644 78.852 14.9171 78.8331C13.853 78.4887 11.8069 77.9833 10.5313 77.241C7.28857 75.3487 3.7143 71.6496 3.00702 67.7704C2.97229 67.5651 3.17121 67.3976 3.36382 67.4734C6.92862 68.8697 9.71983 71.2642 12.2837 74.2336C12.3121 74.2652 12.3563 74.2747 12.3911 74.2526C12.4258 74.2305 12.4416 74.1894 12.4258 74.1483L9.56827 66.7911C9.42934 66.4342 9.17043 66.1372 8.8389 65.954C3.95427 63.2278 0.793629 59.2507 0.00110029 53.6246C-0.0115296 53.5077 0.0863523 53.4129 0.203179 53.4319C2.88388 53.8962 5.27725 56.7804 6.856 59.3612C7.78114 60.8744 8.3558 61.8979 8.57998 62.4349C8.62103 62.5328 8.72838 62.5771 8.82627 62.5391H8.83574C8.93046 62.4981 8.97467 62.3907 8.93993 62.2927C7.97374 59.7498 7.86955 57.0552 7.70536 53.9752C7.68641 53.6182 7.50328 53.2865 7.20963 53.0812C6.21187 52.3926 5.48565 51.9187 4.86047 51.0658C2.25554 47.553 1.25146 43.4843 1.8356 38.869C1.8798 38.5121 2.30922 38.3541 2.57761 38.6005C5.22989 41.0361 6.70128 45.168 7.2791 48.6176C7.28857 48.6808 7.34541 48.7282 7.40856 48.725C7.47486 48.725 7.52854 48.6745 7.53801 48.6144L8.56735 40.9192C8.62103 40.5085 8.51052 40.0947 8.25476 39.763C5.15095 35.7891 5.01518 29.5312 7.01071 25.0549C7.1749 24.679 7.70536 24.6569 7.90112 25.0138C9.22095 27.3957 9.86508 30.0271 9.82403 32.9049C9.80509 34.3107 9.80509 35.1352 9.82719 35.3816C9.83035 35.4668 9.95349 35.4763 9.97875 35.3942V35.4005Z" fill="#A7AC50"/>
<path d="M185.269 86.0934C186.261 85.4183 187.467 84.6387 188.898 83.7482C191.274 82.265 193.783 81.5265 196.43 81.5202C196.627 81.5202 196.744 81.7357 196.646 81.9005C195.812 83.2791 194.798 84.4517 193.612 85.4088C191.522 87.0917 188.662 89.0407 186.239 89.3069C185.425 89.3957 184.359 89.4464 183.058 89.4495C182.575 89.4527 182.117 89.6555 181.786 90.0073C179.935 92.0071 177.96 93.8104 175.873 95.4235C175.819 95.4679 175.81 95.5439 175.845 95.5978L175.911 95.6865C175.911 95.6865 175.934 95.6992 175.943 95.696C179.432 93.8516 183.507 92.2416 187.193 93.3382C187.591 93.4554 187.711 93.953 187.412 94.2414C184.4 97.138 180.746 98.5356 176.442 98.4406C175.609 98.4216 174.521 98.355 173.189 98.2377C172.626 98.187 172.063 98.2948 171.56 98.5483L164.417 102.168C164.417 102.168 164.394 102.196 164.397 102.209L164.442 102.32C164.471 102.393 164.55 102.431 164.623 102.408C168.17 101.407 172.813 101.169 176.058 103.052C176.325 103.204 176.318 103.587 176.048 103.733C171.159 106.386 166.242 106.652 161.293 104.532C160.733 104.294 160.104 104.266 159.531 104.465C156.872 105.378 153.641 106.218 149.843 106.978C149.41 107.064 149.01 106.741 149 106.303V106.272C148.997 105.796 149.328 105.378 149.798 105.28C153.237 104.548 156.265 103.717 158.876 102.782C159.786 102.456 160.129 102.149 160.314 101.153C161.153 96.65 164.986 92.6948 168.873 90.4257C169.016 90.3401 169.2 90.4478 169.197 90.6158C169.076 95.2048 166.341 98.5008 162.775 101.217C162.721 101.261 162.712 101.337 162.747 101.391L162.813 101.48C162.813 101.48 162.836 101.493 162.845 101.489C165.387 100.047 168.583 98.6973 171.331 96.7958C171.525 96.6626 171.659 96.4503 171.697 96.2158C171.827 95.3981 171.748 94.3174 171.818 93.5346C172.2 89.4527 174.032 86.03 177.301 83.2791C177.463 83.1428 177.712 83.2474 177.724 83.4534C177.982 86.9079 176.993 90.1626 175.65 93.2938C175.6 93.411 175.746 93.5093 175.841 93.4237C177.667 91.7726 179.146 90.3559 180.266 89.177C180.781 88.6382 181.105 88.1945 181.236 87.8396C181.287 87.7001 181.302 87.5512 181.29 87.4054C181.217 86.5846 181.163 85.187 181.124 83.2189C181.058 80.0022 182.047 75.5716 184.483 73.2898C184.633 73.1472 184.884 73.2264 184.928 73.4292C185.727 77.0073 185.6 80.5726 184.559 84.1253C184.537 84.1982 184.572 84.2774 184.645 84.3091C184.712 84.3408 184.795 84.3123 184.836 84.2521C186.089 82.2586 187.148 80.5251 188.017 79.0482C188.405 78.3986 188.602 77.8851 188.612 77.5175C188.615 77.3654 188.589 77.2133 188.529 77.0675C187.537 74.643 187.034 72.9824 187.009 72.0792C186.932 69.1381 186.996 66.8024 187.203 65.0784C187.288 64.3558 187.514 63.6016 187.874 62.8188C187.972 62.6064 188.265 62.5747 188.405 62.7649C191.169 66.457 191.197 70.802 190.466 75.1596C190.456 75.223 190.494 75.2864 190.552 75.3022C190.615 75.3244 190.682 75.2991 190.711 75.2389C192.091 72.469 193.001 69.6674 193.446 66.8405C193.586 65.9373 193.478 65.4302 192.73 64.6791C190.307 62.2325 188.968 59.133 188.71 55.3807C188.697 55.162 188.653 54.151 188.583 52.3572C188.573 52.1924 188.748 52.0783 188.898 52.1607C192.403 54.1003 193.662 57.9635 193.949 61.7349C193.952 61.7698 193.98 61.8014 194.022 61.8014C194.057 61.8046 194.089 61.7793 194.098 61.7444L195.523 54.6771C195.641 54.1035 195.405 53.514 194.928 53.1686C191.092 50.4304 188.726 46.5354 187.829 41.4932C187.794 41.2904 187.979 41.1193 188.182 41.17C191.897 42.0985 194.699 46.3611 195.488 49.8726C195.498 49.9233 195.542 49.955 195.593 49.9455C195.644 49.9423 195.679 49.8948 195.679 49.8472C195.603 47.5717 195.412 45.1948 195.103 42.726C195.027 42.089 194.887 41.5059 194.693 40.9798C194.62 40.7833 194.467 40.6217 194.27 40.5456C193.351 40.178 191.916 39.7723 190.972 39.1448C188.233 37.313 185.148 34.4513 184.031 31.1997C183.974 31.0349 184.108 30.8637 184.289 30.8764C188.332 31.2092 191.099 33.7952 193.459 36.8852C193.468 36.8947 193.478 36.8979 193.491 36.8884C193.5 36.8852 193.503 36.8694 193.5 36.8598L190.666 29.5992C190.536 29.2569 190.23 29.0097 189.868 28.9527C187.839 28.6263 185.749 27.9417 183.596 26.9149C181.264 25.8057 179.54 24.1165 178.421 21.8537C178.31 21.635 178.478 21.372 178.726 21.3815C182.117 21.5399 185.059 22.6618 187.549 24.7503C187.584 24.7757 187.635 24.7757 187.667 24.7503C187.699 24.7186 187.708 24.6679 187.68 24.6331L184.903 20.7128C184.862 20.6557 184.817 20.6082 184.76 20.5733C181.894 18.7732 179.496 16.5326 177.572 13.8515C176.811 12.7929 176.264 11.6425 175.93 10.4034C175.864 10.1562 176.096 9.93116 176.341 10.0072C179.369 10.9453 181.802 12.6789 183.64 15.2079C183.996 15.6959 184.655 16.9097 185.606 18.8398C186.264 20.174 187.009 21.3466 187.832 22.3544C188.3 22.928 188.513 23.7679 189.063 24.3352C189.14 24.4112 189.267 24.3383 189.238 24.2369C188.43 21.3846 188.052 18.3707 188.093 15.1984C188.106 14.3807 188.224 13.6613 188.446 13.0433C188.5 12.8912 188.685 12.8246 188.825 12.907C189.257 13.1669 189.636 13.5409 189.963 14.0289C192.556 17.9175 192.667 22.8583 191.388 27.1716C191.325 27.3839 191.347 27.6058 191.452 27.8054C192.727 30.1728 193.774 32.6765 194.588 35.326C194.601 35.3703 194.645 35.3988 194.696 35.3925C194.741 35.383 194.779 35.3418 194.772 35.2943C194.607 31.7828 194.76 28.1984 196.43 25.1306C196.55 24.9025 196.697 24.7567 196.859 24.6996C196.948 24.6679 197.053 24.7091 197.088 24.7979C198.36 27.815 198.831 30.9715 198.503 34.2643C198.29 36.3971 197.132 38.0451 195.965 39.7565C195.79 40.0164 195.727 40.3396 195.79 40.6502C196.436 43.8067 196.709 47.0171 196.604 50.2909C196.601 50.3543 196.649 50.4082 196.713 50.4177H196.818C196.891 50.4177 196.948 50.3638 196.954 50.2909L197.145 47.0266C197.148 46.9759 197.155 46.9316 197.167 46.8872C197.956 43.9684 199.407 40.5615 201.76 38.5902C202.062 38.343 202.517 38.5395 202.536 38.9325C202.765 43.7814 201.56 49.4321 197.594 52.6013C197.164 52.9435 196.903 53.4538 196.878 54.002C196.719 57.092 196.261 60.0869 195.498 62.9836C195.475 63.0786 195.529 63.1674 195.618 63.1959L195.73 63.2308C195.752 63.2403 195.774 63.2308 195.784 63.2086C197.085 60.2771 198.844 57.653 201.067 55.3426C201.773 54.6074 202.568 54.0591 203.446 53.6978C203.729 53.5805 204.038 53.8151 203.996 54.1193C203.36 59.0062 201 62.8219 196.907 65.5665C196.614 65.7629 196.204 65.9436 195.682 66.1084C195.221 66.2478 194.881 66.6281 194.782 67.0972C194.2 69.8861 193.386 72.3327 192.327 74.4307C192.304 74.4719 192.323 74.5258 192.362 74.548C192.403 74.5765 192.457 74.5606 192.482 74.5258C194.419 71.9746 198.783 67.7691 202.139 67.5662C202.377 67.5535 202.549 67.7944 202.45 68.0099C200.094 73.1884 196.15 77.3083 190.612 78.6331C190.145 78.744 189.75 79.0546 189.528 79.4761C188.335 81.7389 186.881 83.9098 185.18 85.9888C185.157 86.0141 185.161 86.0522 185.183 86.0775C185.205 86.0997 185.246 86.106 185.272 86.087L185.269 86.0934Z" fill="#A7AC50"/>
<path d="M75.731 3.961H80.307V5.292H75.731V3.961ZM71.023 9.109H81.088V10.44H71.023V9.109ZM74.983 0.793H76.402V9.846H74.983V0.793ZM85.037 5.094H92.011V6.205H85.037V5.094ZM86.236 6.722H90.757V7.767H86.236V6.722ZM86.654 5.501L87.787 5.787C87.5157 6.41767 87.1453 7.00067 86.676 7.536C86.214 8.064 85.7227 8.50033 85.202 8.845C85.136 8.77167 85.048 8.68367 84.938 8.581C84.8353 8.471 84.7253 8.36833 84.608 8.273C84.498 8.17767 84.399 8.10067 84.311 8.042C84.8243 7.76333 85.2863 7.404 85.697 6.964C86.115 6.51667 86.434 6.029 86.654 5.501ZM90.559 6.722H91.78C91.78 6.722 91.7763 6.78067 91.769 6.898C91.769 7.008 91.7617 7.10333 91.747 7.184C91.703 7.89533 91.648 8.482 91.582 8.944C91.5233 9.39867 91.4573 9.75067 91.384 10C91.3107 10.2567 91.2227 10.44 91.12 10.55C91.0173 10.6747 90.9037 10.7627 90.779 10.814C90.6617 10.8653 90.5297 10.902 90.383 10.924C90.2583 10.9387 90.097 10.9497 89.899 10.957C89.7083 10.9643 89.4993 10.9607 89.272 10.946C89.2647 10.792 89.2353 10.6123 89.184 10.407C89.1327 10.209 89.063 10.044 88.975 9.912C89.151 9.92667 89.3087 9.93767 89.448 9.945C89.5873 9.945 89.6937 9.945 89.767 9.945C89.8403 9.945 89.899 9.93767 89.943 9.923C89.9943 9.90833 90.042 9.87533 90.086 9.824C90.152 9.75067 90.2107 9.61133 90.262 9.406C90.3207 9.19333 90.372 8.88533 90.416 8.482C90.4673 8.07867 90.515 7.55433 90.559 6.909V6.722ZM87.182 3.235V3.763H90.02V3.235H87.182ZM87.182 1.849V2.366H90.02V1.849H87.182ZM86.005 0.935999H91.241V4.676H86.005V0.935999ZM81.825 2.971H85.18V4.214H81.825V2.971ZM82.936 0.793H84.168V7.635H82.936V0.793ZM81.572 7.855C81.858 7.75233 82.188 7.624 82.562 7.47C82.9433 7.316 83.3467 7.151 83.772 6.975C84.1973 6.79167 84.619 6.60833 85.037 6.425L85.323 7.558C84.773 7.844 84.212 8.13 83.64 8.416C83.068 8.702 82.5437 8.96233 82.067 9.197L81.572 7.855ZM89.294 6.942L90.185 7.426C90.053 7.866 89.866 8.317 89.624 8.779C89.382 9.23367 89.1107 9.659 88.81 10.055C88.5093 10.451 88.194 10.7773 87.864 11.034C87.754 10.9093 87.611 10.7773 87.435 10.638C87.259 10.4987 87.0867 10.385 86.918 10.297C87.2773 10.0697 87.611 9.77633 87.919 9.417C88.227 9.05767 88.4983 8.66167 88.733 8.229C88.975 7.79633 89.162 7.36733 89.294 6.942ZM87.633 6.953L88.491 7.459C88.3077 7.84033 88.0657 8.22533 87.765 8.614C87.4717 9.00267 87.149 9.36567 86.797 9.703C86.445 10.0403 86.093 10.319 85.741 10.539C85.6383 10.407 85.5063 10.2677 85.345 10.121C85.191 9.97433 85.037 9.85333 84.883 9.758C85.2423 9.57467 85.598 9.33267 85.95 9.032C86.3093 8.73133 86.6357 8.40133 86.929 8.042C87.2223 7.67533 87.457 7.31233 87.633 6.953ZM97.555 1.915C97.3277 2.245 97.0563 2.586 96.741 2.938C96.4257 3.29 96.0737 3.63833 95.685 3.983C95.3037 4.32767 94.8967 4.65767 94.464 4.973C94.0387 5.281 93.595 5.56333 93.133 5.82C93.0817 5.71733 93.0083 5.6 92.913 5.468C92.8177 5.336 92.715 5.20767 92.605 5.083C92.495 4.95833 92.3923 4.84833 92.297 4.753C92.935 4.423 93.5473 4.027 94.134 3.565C94.7207 3.09567 95.245 2.60067 95.707 2.08C96.1763 1.55933 96.5467 1.068 96.818 0.606H98.182C98.4827 1.03867 98.8163 1.45667 99.183 1.86C99.5497 2.26333 99.9383 2.63733 100.349 2.982C100.76 3.32667 101.185 3.63833 101.625 3.917C102.065 4.19567 102.509 4.43033 102.956 4.621C102.787 4.78967 102.626 4.98033 102.472 5.193C102.325 5.39833 102.19 5.60367 102.065 5.809C101.632 5.567 101.2 5.29567 100.767 4.995C100.342 4.687 99.9273 4.36067 99.524 4.016C99.1207 3.67133 98.7503 3.31933 98.413 2.96C98.0757 2.60067 97.7897 2.25233 97.555 1.915ZM97.632 6.106H101.317V7.283H97.632V6.106ZM92.913 9.494H102.318V10.693H92.913V9.494ZM96.972 3.752H98.369V10.132H96.972V3.752ZM94.112 5.655H95.41V10.11H94.112V5.655ZM103.506 7.382H113.318V8.471H103.506V7.382ZM103.539 2.454H113.285V3.532H103.539V2.454ZM103.99 4.423H112.856V5.457H103.99V4.423ZM104.529 5.941H112.35V6.898H104.529V5.941ZM107.719 4.94H109.028V10.99H107.719V4.94ZM106.762 0.639H107.994V2.971H106.762V0.639ZM108.808 0.639H110.051V2.894H108.808V0.639ZM107.477 7.866L108.522 8.339C108.177 8.72033 107.759 9.076 107.268 9.406C106.784 9.72867 106.263 10.011 105.706 10.253C105.149 10.5023 104.588 10.704 104.023 10.858C103.964 10.748 103.884 10.6233 103.781 10.484C103.686 10.352 103.583 10.22 103.473 10.088C103.37 9.956 103.271 9.846 103.176 9.758C103.726 9.64067 104.272 9.49033 104.815 9.307C105.365 9.12367 105.871 8.90733 106.333 8.658C106.795 8.40867 107.176 8.14467 107.477 7.866ZM109.292 7.833C109.519 8.053 109.791 8.262 110.106 8.46C110.421 8.65067 110.766 8.82667 111.14 8.988C111.521 9.142 111.921 9.27767 112.339 9.395C112.764 9.51233 113.193 9.604 113.626 9.67C113.523 9.77267 113.413 9.89 113.296 10.022C113.186 10.1613 113.08 10.3043 112.977 10.451C112.882 10.605 112.801 10.7443 112.735 10.869C112.295 10.759 111.862 10.616 111.437 10.44C111.019 10.2713 110.619 10.077 110.238 9.857C109.857 9.637 109.497 9.39133 109.16 9.12C108.823 8.84867 108.526 8.559 108.269 8.251L109.292 7.833ZM111.338 0.737999L112.713 1.068C112.544 1.36867 112.372 1.662 112.196 1.948C112.02 2.22667 111.859 2.465 111.712 2.663L110.634 2.333C110.722 2.18633 110.81 2.02133 110.898 1.838C110.986 1.64733 111.067 1.45667 111.14 1.266C111.221 1.068 111.287 0.891999 111.338 0.737999ZM109.886 3.092L111.283 3.422C111.129 3.67867 110.982 3.928 110.843 4.17C110.704 4.40467 110.579 4.60633 110.469 4.775L109.347 4.467C109.442 4.26167 109.541 4.03433 109.644 3.785C109.747 3.52833 109.827 3.29733 109.886 3.092ZM104.32 1.09L105.453 0.705C105.614 0.932333 105.776 1.19633 105.937 1.497C106.098 1.79033 106.216 2.04333 106.289 2.256L105.101 2.696C105.042 2.476 104.936 2.21567 104.782 1.915C104.628 1.61433 104.474 1.33933 104.32 1.09ZM105.717 3.554L107.004 3.345C107.099 3.499 107.191 3.675 107.279 3.873C107.374 4.06367 107.444 4.23233 107.488 4.379L106.146 4.61C106.109 4.47067 106.051 4.29833 105.97 4.093C105.889 3.88767 105.805 3.708 105.717 3.554ZM118.752 1.31C118.715 1.44933 118.679 1.60333 118.642 1.772C118.613 1.93333 118.583 2.08367 118.554 2.223C118.525 2.38433 118.488 2.56767 118.444 2.773C118.4 2.971 118.356 3.17267 118.312 3.378C118.275 3.576 118.235 3.77033 118.191 3.961C118.118 4.27633 118.026 4.643 117.916 5.061C117.806 5.479 117.678 5.93 117.531 6.414C117.384 6.89067 117.219 7.371 117.036 7.855C116.853 8.339 116.658 8.812 116.453 9.274C116.248 9.72867 116.028 10.1393 115.793 10.506L114.363 9.934C114.62 9.58933 114.858 9.20433 115.078 8.779C115.305 8.34633 115.511 7.90267 115.694 7.448C115.877 6.99333 116.039 6.546 116.178 6.106C116.325 5.666 116.449 5.25533 116.552 4.874C116.655 4.49267 116.735 4.16633 116.794 3.895C116.897 3.39633 116.977 2.916 117.036 2.454C117.095 1.992 117.12 1.55567 117.113 1.145L118.752 1.31ZM122.536 2.344C122.712 2.57867 122.892 2.87567 123.075 3.235C123.266 3.587 123.449 3.961 123.625 4.357C123.808 4.753 123.973 5.13433 124.12 5.501C124.274 5.86767 124.391 6.17933 124.472 6.436L123.075 7.085C123.002 6.777 122.899 6.436 122.767 6.062C122.642 5.68067 122.496 5.29567 122.327 4.907C122.166 4.511 121.99 4.137 121.799 3.785C121.616 3.433 121.425 3.13967 121.227 2.905L122.536 2.344ZM114.286 3.565C114.484 3.57967 114.678 3.587 114.869 3.587C115.06 3.57967 115.258 3.57233 115.463 3.565C115.639 3.55767 115.855 3.54667 116.112 3.532C116.376 3.51 116.651 3.488 116.937 3.466C117.23 3.444 117.524 3.422 117.817 3.4C118.11 3.37067 118.382 3.34867 118.631 3.334C118.88 3.31933 119.086 3.312 119.247 3.312C119.636 3.312 119.977 3.378 120.27 3.51C120.571 3.63467 120.805 3.851 120.974 4.159C121.15 4.467 121.238 4.885 121.238 5.413C121.238 5.84567 121.216 6.315 121.172 6.821C121.135 7.327 121.073 7.811 120.985 8.273C120.897 8.735 120.772 9.12733 120.611 9.45C120.435 9.83133 120.193 10.0953 119.885 10.242C119.584 10.3887 119.225 10.462 118.807 10.462C118.594 10.462 118.367 10.4437 118.125 10.407C117.89 10.3777 117.678 10.3447 117.487 10.308L117.245 8.856C117.392 8.89267 117.549 8.92933 117.718 8.966C117.894 9.00267 118.059 9.032 118.213 9.054C118.374 9.076 118.503 9.087 118.598 9.087C118.781 9.087 118.943 9.054 119.082 8.988C119.221 8.91467 119.335 8.79 119.423 8.614C119.526 8.40133 119.606 8.12633 119.665 7.789C119.731 7.45167 119.779 7.08867 119.808 6.7C119.845 6.304 119.863 5.92633 119.863 5.567C119.863 5.27367 119.823 5.05733 119.742 4.918C119.661 4.77867 119.54 4.687 119.379 4.643C119.225 4.59167 119.031 4.566 118.796 4.566C118.635 4.566 118.407 4.58067 118.114 4.61C117.828 4.632 117.524 4.66133 117.201 4.698C116.878 4.72733 116.574 4.76033 116.288 4.797C116.009 4.83367 115.793 4.85933 115.639 4.874C115.485 4.90333 115.283 4.93633 115.034 4.973C114.792 5.00233 114.587 5.03167 114.418 5.061L114.286 3.565ZM128.124 1.145C128.388 1.22567 128.718 1.31 129.114 1.398C129.51 1.486 129.924 1.574 130.357 1.662C130.79 1.74267 131.197 1.81233 131.578 1.871C131.967 1.92967 132.282 1.97367 132.524 2.003L132.194 3.345C131.974 3.31567 131.706 3.27533 131.391 3.224C131.083 3.16533 130.753 3.103 130.401 3.037C130.056 2.971 129.715 2.905 129.378 2.839C129.041 2.76567 128.733 2.696 128.454 2.63C128.175 2.564 127.948 2.509 127.772 2.465L128.124 1.145ZM128.19 3.356C128.153 3.50267 128.113 3.69333 128.069 3.928C128.032 4.15533 127.996 4.39367 127.959 4.643C127.922 4.89233 127.886 5.13067 127.849 5.358C127.82 5.58533 127.794 5.776 127.772 5.93C128.271 5.57067 128.791 5.30667 129.334 5.138C129.884 4.96933 130.445 4.885 131.017 4.885C131.662 4.885 132.212 5.00233 132.667 5.237C133.122 5.47167 133.466 5.77967 133.701 6.161C133.943 6.54233 134.064 6.95667 134.064 7.404C134.064 7.90267 133.958 8.36467 133.745 8.79C133.532 9.21533 133.184 9.57833 132.7 9.879C132.216 10.1797 131.582 10.3923 130.797 10.517C130.012 10.6417 129.048 10.6563 127.904 10.561L127.486 9.12C128.586 9.26667 129.51 9.28867 130.258 9.186C131.006 9.076 131.571 8.86333 131.952 8.548C132.341 8.22533 132.535 7.833 132.535 7.371C132.535 7.129 132.465 6.91633 132.326 6.733C132.187 6.54233 131.992 6.39567 131.743 6.293C131.494 6.183 131.211 6.128 130.896 6.128C130.28 6.128 129.701 6.24167 129.158 6.469C128.623 6.689 128.183 7.008 127.838 7.426C127.743 7.54333 127.662 7.65333 127.596 7.756C127.537 7.85133 127.482 7.954 127.431 8.064L126.166 7.745C126.21 7.53233 126.254 7.283 126.298 6.997C126.342 6.70367 126.386 6.392 126.43 6.062C126.474 5.72467 126.514 5.38733 126.551 5.05C126.588 4.71267 126.621 4.379 126.65 4.049C126.679 3.719 126.701 3.41833 126.716 3.147L128.19 3.356ZM63.554 14.542C63.51 14.608 63.444 14.7107 63.356 14.85C63.2753 14.9893 63.213 15.1177 63.169 15.235C63.015 15.5797 62.8243 15.9647 62.597 16.39C62.377 16.8153 62.124 17.2443 61.838 17.677C61.5593 18.1023 61.2623 18.502 60.947 18.876C60.5363 19.338 60.0817 19.7963 59.583 20.251C59.0917 20.6983 58.571 21.1127 58.021 21.494C57.4783 21.868 56.921 22.1907 56.349 22.462L55.216 21.274C55.81 21.0467 56.3857 20.7607 56.943 20.416C57.5003 20.0713 58.0173 19.6973 58.494 19.294C58.9707 18.8907 59.3813 18.4983 59.726 18.117C59.968 17.8383 60.1953 17.5413 60.408 17.226C60.628 16.9107 60.8223 16.599 60.991 16.291C61.1597 15.9757 61.2843 15.686 61.365 15.422C61.2917 15.422 61.1597 15.422 60.969 15.422C60.7783 15.422 60.5547 15.422 60.298 15.422C60.0487 15.422 59.7847 15.422 59.506 15.422C59.2273 15.422 58.9597 15.422 58.703 15.422C58.4537 15.422 58.2337 15.422 58.043 15.422C57.8523 15.422 57.7167 15.422 57.636 15.422C57.482 15.422 57.3207 15.4293 57.152 15.444C56.9833 15.4513 56.822 15.4623 56.668 15.477C56.5213 15.4843 56.4077 15.4917 56.327 15.499V13.937C56.437 13.9443 56.5727 13.9553 56.734 13.97C56.8953 13.9847 57.0567 13.9957 57.218 14.003C57.3867 14.0103 57.526 14.014 57.636 14.014C57.7313 14.014 57.8817 14.014 58.087 14.014C58.2923 14.014 58.527 14.014 58.791 14.014C59.055 14.014 59.3263 14.014 59.605 14.014C59.891 14.014 60.1623 14.014 60.419 14.014C60.683 14.014 60.9103 14.014 61.101 14.014C61.2917 14.014 61.431 14.014 61.519 14.014C61.761 14.014 61.981 13.9993 62.179 13.97C62.3843 13.9407 62.542 13.9077 62.652 13.871L63.554 14.542ZM61.09 17.963C61.376 18.1903 61.6803 18.4543 62.003 18.755C62.3257 19.0557 62.6447 19.3673 62.96 19.69C63.2753 20.0127 63.565 20.3243 63.829 20.625C64.1003 20.9183 64.3277 21.175 64.511 21.395L63.257 22.484C62.9857 22.11 62.674 21.7213 62.322 21.318C61.9773 20.9147 61.6107 20.515 61.222 20.119C60.8407 19.7157 60.452 19.3343 60.056 18.975L61.09 17.963ZM69.879 16.852C70.2163 17.0427 70.583 17.27 70.979 17.534C71.3823 17.7907 71.7893 18.0583 72.2 18.337C72.6107 18.6157 72.9957 18.887 73.355 19.151C73.7217 19.415 74.0297 19.6497 74.279 19.855L73.234 21.098C72.992 20.878 72.6913 20.625 72.332 20.339C71.98 20.0457 71.5987 19.7487 71.188 19.448C70.7773 19.14 70.3703 18.8467 69.967 18.568C69.571 18.2893 69.2153 18.051 68.9 17.853L69.879 16.852ZM75.049 14.982C74.983 15.0847 74.917 15.2057 74.851 15.345C74.785 15.4843 74.73 15.6237 74.686 15.763C74.576 16.1003 74.4257 16.478 74.235 16.896C74.0517 17.3067 73.8317 17.7283 73.575 18.161C73.3183 18.5863 73.025 19.0043 72.695 19.415C72.1743 20.0603 71.5473 20.6727 70.814 21.252C70.088 21.8313 69.197 22.3227 68.141 22.726L66.865 21.615C67.635 21.3803 68.3023 21.1017 68.867 20.779C69.4317 20.4563 69.9193 20.1117 70.33 19.745C70.748 19.3783 71.111 19.0117 71.419 18.645C71.6683 18.359 71.903 18.04 72.123 17.688C72.3503 17.3287 72.5447 16.973 72.706 16.621C72.8747 16.2617 72.992 15.9427 73.058 15.664H69.34L69.846 14.41H72.97C73.146 14.41 73.3183 14.399 73.487 14.377C73.663 14.355 73.8097 14.3257 73.927 14.289L75.049 14.982ZM71.419 13.288C71.287 13.4787 71.155 13.684 71.023 13.904C70.8983 14.124 70.803 14.2927 70.737 14.41C70.4877 14.85 70.1723 15.3193 69.791 15.818C69.4097 16.3093 68.9807 16.7897 68.504 17.259C68.0347 17.7283 67.536 18.1463 67.008 18.513L65.82 17.6C66.4653 17.1967 67.0117 16.775 67.459 16.335C67.9137 15.8877 68.2913 15.4587 68.592 15.048C68.8927 14.63 69.1347 14.2597 69.318 13.937C69.406 13.805 69.4977 13.629 69.593 13.409C69.6957 13.1817 69.7727 12.9763 69.824 12.793L71.419 13.288ZM76.952 16.907C77.084 16.9143 77.2527 16.9253 77.458 16.94C77.6633 16.9473 77.876 16.9547 78.096 16.962C78.3233 16.9693 78.5323 16.973 78.723 16.973C78.9063 16.973 79.1337 16.973 79.405 16.973C79.6763 16.973 79.9697 16.973 80.285 16.973C80.6077 16.973 80.9377 16.973 81.275 16.973C81.6197 16.973 81.9607 16.973 82.298 16.973C82.6353 16.973 82.9543 16.973 83.255 16.973C83.5557 16.973 83.8233 16.973 84.058 16.973C84.3 16.973 84.4907 16.973 84.63 16.973C84.8867 16.973 85.1287 16.9657 85.356 16.951C85.5833 16.929 85.7703 16.9143 85.917 16.907V18.634C85.7923 18.6267 85.6053 18.6157 85.356 18.601C85.1067 18.5863 84.8647 18.579 84.63 18.579C84.4907 18.579 84.3 18.579 84.058 18.579C83.816 18.579 83.5447 18.579 83.244 18.579C82.9433 18.579 82.6243 18.579 82.287 18.579C81.957 18.579 81.6197 18.579 81.275 18.579C80.9303 18.579 80.5967 18.579 80.274 18.579C79.9587 18.579 79.6653 18.579 79.394 18.579C79.13 18.579 78.9063 18.579 78.723 18.579C78.4077 18.579 78.085 18.5863 77.755 18.601C77.425 18.6083 77.1573 18.6193 76.952 18.634V16.907ZM90.174 20.944C90.174 20.8047 90.174 20.5773 90.174 20.262C90.174 19.9393 90.174 19.569 90.174 19.151C90.174 18.7257 90.174 18.282 90.174 17.82C90.174 17.358 90.174 16.9143 90.174 16.489C90.174 16.0563 90.174 15.675 90.174 15.345C90.174 15.015 90.174 14.773 90.174 14.619C90.174 14.4283 90.163 14.2083 90.141 13.959C90.1263 13.7097 90.1007 13.4897 90.064 13.299H91.78C91.758 13.4897 91.736 13.7023 91.714 13.937C91.692 14.1643 91.681 14.3917 91.681 14.619C91.681 14.8243 91.681 15.103 91.681 15.455C91.681 15.807 91.681 16.1993 91.681 16.632C91.681 17.0573 91.681 17.4937 91.681 17.941C91.681 18.381 91.681 18.8063 91.681 19.217C91.681 19.6277 91.681 19.987 91.681 20.295C91.681 20.5957 91.681 20.812 91.681 20.944C91.681 21.0467 91.6847 21.1933 91.692 21.384C91.6993 21.5673 91.714 21.758 91.736 21.956C91.758 22.154 91.7727 22.33 91.78 22.484H90.064C90.0933 22.264 90.119 22.0073 90.141 21.714C90.163 21.4207 90.174 21.164 90.174 20.944ZM91.351 16.148C91.7177 16.2433 92.1283 16.368 92.583 16.522C93.0377 16.6687 93.496 16.8263 93.958 16.995C94.42 17.1637 94.8527 17.3323 95.256 17.501C95.6667 17.6623 96.0077 17.8127 96.279 17.952L95.652 19.47C95.344 19.3087 95.003 19.1473 94.629 18.986C94.255 18.8173 93.8737 18.656 93.485 18.502C93.1037 18.348 92.726 18.205 92.352 18.073C91.9853 17.941 91.6517 17.8237 91.351 17.721V16.148ZM108.005 14.553C107.946 14.6263 107.873 14.7217 107.785 14.839C107.697 14.949 107.627 15.0443 107.576 15.125C107.407 15.411 107.184 15.741 106.905 16.115C106.626 16.4817 106.318 16.8483 105.981 17.215C105.644 17.5743 105.295 17.8823 104.936 18.139L103.792 17.226C104.012 17.094 104.228 16.94 104.441 16.764C104.654 16.588 104.848 16.4047 105.024 16.214C105.207 16.016 105.365 15.829 105.497 15.653C105.636 15.477 105.743 15.3193 105.816 15.18C105.721 15.18 105.559 15.18 105.332 15.18C105.105 15.18 104.833 15.18 104.518 15.18C104.203 15.18 103.862 15.18 103.495 15.18C103.136 15.18 102.776 15.18 102.417 15.18C102.058 15.18 101.717 15.18 101.394 15.18C101.079 15.18 100.804 15.18 100.569 15.18C100.342 15.18 100.18 15.18 100.085 15.18C99.8577 15.18 99.6413 15.1873 99.436 15.202C99.2307 15.2167 98.9997 15.235 98.743 15.257V13.728C98.9557 13.7573 99.1757 13.783 99.403 13.805C99.6303 13.827 99.8577 13.838 100.085 13.838C100.18 13.838 100.349 13.838 100.591 13.838C100.833 13.838 101.119 13.838 101.449 13.838C101.786 13.838 102.142 13.838 102.516 13.838C102.897 13.838 103.275 13.838 103.649 13.838C104.03 13.838 104.382 13.838 104.705 13.838C105.035 13.838 105.314 13.838 105.541 13.838C105.776 13.838 105.933 13.838 106.014 13.838C106.117 13.838 106.241 13.8343 106.388 13.827C106.535 13.8197 106.678 13.8087 106.817 13.794C106.964 13.7793 107.07 13.761 107.136 13.739L108.005 14.553ZM103.517 16.038C103.517 16.5807 103.506 17.105 103.484 17.611C103.462 18.117 103.4 18.6047 103.297 19.074C103.202 19.536 103.044 19.976 102.824 20.394C102.611 20.812 102.314 21.208 101.933 21.582C101.552 21.956 101.064 22.3007 100.47 22.616L99.183 21.571C99.359 21.5123 99.546 21.4353 99.744 21.34C99.942 21.2373 100.14 21.1127 100.338 20.966C100.69 20.724 100.972 20.4673 101.185 20.196C101.405 19.9247 101.574 19.6313 101.691 19.316C101.808 18.9933 101.889 18.645 101.933 18.271C101.977 17.8897 101.999 17.4753 101.999 17.028C101.999 16.8593 101.995 16.698 101.988 16.544C101.981 16.3827 101.959 16.214 101.922 16.038H103.517ZM113.835 15.466C113.886 15.5833 113.952 15.752 114.033 15.972C114.121 16.1847 114.213 16.4157 114.308 16.665C114.403 16.907 114.488 17.138 114.561 17.358C114.634 17.578 114.693 17.7503 114.737 17.875L113.417 18.337C113.388 18.1977 113.336 18.0217 113.263 17.809C113.19 17.5963 113.109 17.3727 113.021 17.138C112.933 16.896 112.845 16.665 112.757 16.445C112.669 16.225 112.592 16.0417 112.526 15.895L113.835 15.466ZM117.894 16.269C117.835 16.445 117.784 16.5953 117.74 16.72C117.703 16.8447 117.667 16.962 117.63 17.072C117.491 17.6293 117.3 18.1867 117.058 18.744C116.816 19.294 116.508 19.811 116.134 20.295C115.621 20.955 115.038 21.516 114.385 21.978C113.74 22.4327 113.094 22.781 112.449 23.023L111.294 21.846C111.697 21.736 112.123 21.5747 112.57 21.362C113.017 21.142 113.45 20.878 113.868 20.57C114.286 20.262 114.645 19.921 114.946 19.547C115.195 19.2317 115.415 18.8723 115.606 18.469C115.804 18.0583 115.965 17.622 116.09 17.16C116.222 16.6907 116.31 16.2287 116.354 15.774L117.894 16.269ZM111.283 16.049C111.356 16.1883 111.437 16.368 111.525 16.588C111.62 16.808 111.716 17.039 111.811 17.281C111.906 17.523 111.998 17.7577 112.086 17.985C112.181 18.2123 112.255 18.403 112.306 18.557L110.964 19.063C110.92 18.9163 110.854 18.7257 110.766 18.491C110.685 18.2563 110.594 18.0107 110.491 17.754C110.388 17.49 110.289 17.248 110.194 17.028C110.106 16.808 110.029 16.6393 109.963 16.522L111.283 16.049ZM127.904 13.937C127.904 14.113 127.966 14.2633 128.091 14.388C128.216 14.5053 128.362 14.564 128.531 14.564C128.707 14.564 128.857 14.5053 128.982 14.388C129.107 14.2633 129.169 14.113 129.169 13.937C129.169 13.761 129.107 13.6107 128.982 13.486C128.857 13.3613 128.707 13.299 128.531 13.299C128.362 13.299 128.216 13.3613 128.091 13.486C127.966 13.6107 127.904 13.761 127.904 13.937ZM127.222 13.937C127.222 13.695 127.281 13.475 127.398 13.277C127.523 13.0717 127.684 12.9103 127.882 12.793C128.08 12.6757 128.296 12.617 128.531 12.617C128.773 12.617 128.993 12.6757 129.191 12.793C129.396 12.9103 129.558 13.0717 129.675 13.277C129.792 13.475 129.851 13.695 129.851 13.937C129.851 14.1717 129.792 14.388 129.675 14.586C129.558 14.784 129.396 14.9453 129.191 15.07C128.993 15.1873 128.773 15.246 128.531 15.246C128.296 15.246 128.08 15.1873 127.882 15.07C127.684 14.9453 127.523 14.784 127.398 14.586C127.281 14.388 127.222 14.1717 127.222 13.937ZM128.553 14.806C128.502 14.9087 128.458 15.0333 128.421 15.18C128.384 15.3193 128.348 15.4477 128.311 15.565C128.252 15.8363 128.175 16.1407 128.08 16.478C127.985 16.808 127.871 17.1527 127.739 17.512C127.607 17.8713 127.449 18.227 127.266 18.579C127.09 18.931 126.888 19.261 126.661 19.569C126.331 20.009 125.946 20.4197 125.506 20.801C125.066 21.1823 124.575 21.527 124.032 21.835C123.489 22.143 122.892 22.4033 122.239 22.616L121.04 21.296C121.773 21.12 122.404 20.9037 122.932 20.647C123.46 20.3903 123.918 20.097 124.307 19.767C124.703 19.437 125.051 19.085 125.352 18.711C125.594 18.403 125.799 18.0693 125.968 17.71C126.144 17.3507 126.287 16.9913 126.397 16.632C126.514 16.2653 126.595 15.9243 126.639 15.609C126.529 15.609 126.346 15.609 126.089 15.609C125.84 15.609 125.543 15.609 125.198 15.609C124.861 15.609 124.505 15.609 124.131 15.609C123.764 15.609 123.409 15.609 123.064 15.609C122.719 15.609 122.408 15.609 122.129 15.609C121.858 15.609 121.656 15.609 121.524 15.609C121.267 15.609 121.018 15.6127 120.776 15.62C120.541 15.6273 120.354 15.6383 120.215 15.653V14.102C120.325 14.1167 120.457 14.1313 120.611 14.146C120.772 14.1607 120.934 14.1717 121.095 14.179C121.264 14.1863 121.407 14.19 121.524 14.19C121.641 14.19 121.806 14.19 122.019 14.19C122.239 14.19 122.492 14.19 122.778 14.19C123.064 14.19 123.361 14.19 123.669 14.19C123.984 14.19 124.296 14.19 124.604 14.19C124.919 14.19 125.213 14.19 125.484 14.19C125.755 14.19 125.99 14.19 126.188 14.19C126.386 14.19 126.529 14.19 126.617 14.19C126.727 14.19 126.859 14.1863 127.013 14.179C127.174 14.1717 127.328 14.146 127.475 14.102L128.553 14.806ZM136.407 13.101C136.392 13.211 136.378 13.3357 136.363 13.475C136.356 13.607 136.348 13.7427 136.341 13.882C136.334 14.0287 136.326 14.2267 136.319 14.476C136.312 14.718 136.308 14.9857 136.308 15.279C136.308 15.5723 136.308 15.862 136.308 16.148C136.308 16.434 136.308 16.6943 136.308 16.929C136.308 17.237 136.315 17.5817 136.33 17.963C136.345 18.337 136.363 18.7183 136.385 19.107C136.414 19.4883 136.436 19.8477 136.451 20.185C136.473 20.515 136.484 20.79 136.484 21.01C136.484 21.318 136.403 21.6003 136.242 21.857C136.081 22.1063 135.839 22.3043 135.516 22.451C135.201 22.5977 134.801 22.671 134.317 22.671C133.437 22.671 132.77 22.5097 132.315 22.187C131.86 21.8643 131.633 21.4133 131.633 20.834C131.633 20.46 131.739 20.1337 131.952 19.855C132.172 19.569 132.484 19.3453 132.887 19.184C133.298 19.0227 133.785 18.942 134.35 18.942C134.951 18.942 135.512 19.008 136.033 19.14C136.561 19.2647 137.041 19.4297 137.474 19.635C137.907 19.8403 138.292 20.0567 138.629 20.284C138.966 20.5113 139.252 20.7167 139.487 20.9L138.695 22.132C138.431 21.8827 138.134 21.637 137.804 21.395C137.481 21.153 137.126 20.933 136.737 20.735C136.356 20.537 135.949 20.3793 135.516 20.262C135.091 20.1373 134.64 20.075 134.163 20.075C133.782 20.075 133.485 20.141 133.272 20.273C133.067 20.405 132.964 20.5663 132.964 20.757C132.964 20.8963 133.008 21.0173 133.096 21.12C133.184 21.2227 133.312 21.2997 133.481 21.351C133.65 21.4023 133.862 21.428 134.119 21.428C134.317 21.428 134.486 21.406 134.625 21.362C134.772 21.318 134.885 21.2373 134.966 21.12C135.047 21.0027 135.087 20.8377 135.087 20.625C135.087 20.4637 135.08 20.2327 135.065 19.932C135.058 19.6313 135.047 19.3013 135.032 18.942C135.017 18.5753 135.003 18.216 134.988 17.864C134.973 17.512 134.966 17.2003 134.966 16.929C134.966 16.665 134.966 16.39 134.966 16.104C134.973 15.8107 134.977 15.521 134.977 15.235C134.977 14.949 134.977 14.6887 134.977 14.454C134.984 14.212 134.988 14.014 134.988 13.86C134.988 13.7573 134.981 13.6327 134.966 13.486C134.959 13.332 134.944 13.2037 134.922 13.101H136.407ZM131.842 14.135C132.04 14.1643 132.26 14.1937 132.502 14.223C132.744 14.2523 132.99 14.2817 133.239 14.311C133.496 14.333 133.738 14.3513 133.965 14.366C134.192 14.3733 134.39 14.377 134.559 14.377C135.307 14.377 136.051 14.355 136.792 14.311C137.54 14.2597 138.314 14.168 139.113 14.036L139.102 15.301C138.728 15.3523 138.295 15.4 137.804 15.444C137.313 15.488 136.788 15.5247 136.231 15.554C135.681 15.576 135.127 15.587 134.57 15.587C134.343 15.587 134.06 15.5797 133.723 15.565C133.393 15.543 133.063 15.5173 132.733 15.488C132.403 15.4513 132.117 15.4183 131.875 15.389L131.842 14.135ZM131.787 16.511C131.963 16.5403 132.172 16.5697 132.414 16.599C132.656 16.6283 132.902 16.6503 133.151 16.665C133.408 16.6797 133.65 16.6943 133.877 16.709C134.104 16.7163 134.291 16.72 134.438 16.72C135.12 16.72 135.736 16.7053 136.286 16.676C136.843 16.6467 137.364 16.61 137.848 16.566C138.332 16.522 138.798 16.4707 139.245 16.412L139.234 17.71C138.853 17.754 138.482 17.7907 138.123 17.82C137.771 17.8493 137.408 17.875 137.034 17.897C136.667 17.919 136.271 17.9337 135.846 17.941C135.421 17.9483 134.944 17.952 134.416 17.952C134.203 17.952 133.939 17.9483 133.624 17.941C133.309 17.9263 132.986 17.908 132.656 17.886C132.333 17.864 132.047 17.8383 131.798 17.809L131.787 16.511ZM141.379 14.454C141.599 14.4467 141.808 14.4393 142.006 14.432C142.204 14.4173 142.354 14.4063 142.457 14.399C142.684 14.3843 142.963 14.3623 143.293 14.333C143.63 14.2963 144.004 14.2597 144.415 14.223C144.833 14.1863 145.277 14.1497 145.746 14.113C146.215 14.0763 146.703 14.036 147.209 13.992C147.59 13.9553 147.968 13.926 148.342 13.904C148.723 13.8747 149.083 13.8527 149.42 13.838C149.765 13.816 150.065 13.8013 150.322 13.794L150.333 15.202C150.135 15.202 149.908 15.2057 149.651 15.213C149.394 15.2203 149.138 15.235 148.881 15.257C148.632 15.2717 148.408 15.3047 148.21 15.356C147.88 15.444 147.572 15.5943 147.286 15.807C147 16.0123 146.751 16.258 146.538 16.544C146.333 16.8227 146.171 17.127 146.054 17.457C145.937 17.7797 145.878 18.106 145.878 18.436C145.878 18.7953 145.94 19.1143 146.065 19.393C146.197 19.6643 146.373 19.899 146.593 20.097C146.82 20.2877 147.084 20.449 147.385 20.581C147.686 20.7057 148.008 20.801 148.353 20.867C148.705 20.933 149.068 20.977 149.442 20.999L148.925 22.506C148.463 22.4767 148.012 22.4033 147.572 22.286C147.139 22.1687 146.732 22.0073 146.351 21.802C145.97 21.5967 145.636 21.3473 145.35 21.054C145.071 20.7533 144.848 20.4123 144.679 20.031C144.518 19.6423 144.437 19.2097 144.437 18.733C144.437 18.205 144.521 17.721 144.69 17.281C144.859 16.8337 145.068 16.445 145.317 16.115C145.574 15.7777 145.827 15.5173 146.076 15.334C145.871 15.3633 145.621 15.3927 145.328 15.422C145.042 15.4513 144.73 15.488 144.393 15.532C144.063 15.5687 143.726 15.609 143.381 15.653C143.036 15.697 142.703 15.7483 142.38 15.807C142.065 15.8583 141.779 15.9097 141.522 15.961L141.379 14.454ZM148.76 16.28C148.855 16.412 148.954 16.5697 149.057 16.753C149.167 16.929 149.273 17.1087 149.376 17.292C149.479 17.468 149.567 17.6293 149.64 17.776L148.804 18.15C148.665 17.842 148.529 17.5707 148.397 17.336C148.272 17.1013 148.122 16.863 147.946 16.621L148.76 16.28ZM149.992 15.774C150.087 15.906 150.19 16.06 150.3 16.236C150.417 16.4047 150.531 16.5807 150.641 16.764C150.751 16.94 150.843 17.0977 150.916 17.237L150.091 17.633C149.944 17.3397 149.801 17.0793 149.662 16.852C149.53 16.6247 149.372 16.39 149.189 16.148L149.992 15.774Z" fill="#222222"/>
<path d="M60.903 40.905H80.118V42.816H60.903V40.905ZM66.321 28.893H80.097V30.573H66.321V28.893ZM73.146 39.771H75.561V44.496C75.561 45.056 75.491 45.497 75.351 45.819C75.225 46.141 74.945 46.386 74.511 46.554C74.091 46.708 73.594 46.799 73.02 46.827C72.446 46.869 71.767 46.89 70.983 46.89C70.941 46.554 70.843 46.183 70.689 45.777C70.535 45.371 70.374 45.014 70.206 44.706C70.542 44.72 70.885 44.734 71.235 44.748C71.585 44.762 71.893 44.769 72.159 44.769C72.425 44.755 72.607 44.748 72.705 44.748C72.873 44.748 72.985 44.727 73.041 44.685C73.111 44.629 73.146 44.545 73.146 44.433V39.771ZM64.452 43.719L66.174 42.333C66.51 42.543 66.86 42.788 67.224 43.068C67.588 43.334 67.938 43.607 68.274 43.887C68.61 44.167 68.883 44.433 69.093 44.685L67.245 46.218C67.063 45.98 66.818 45.707 66.51 45.399C66.202 45.105 65.866 44.811 65.502 44.517C65.138 44.223 64.788 43.957 64.452 43.719ZM61.47 28.767L63.108 27.381C63.458 27.619 63.822 27.892 64.2 28.2C64.592 28.508 64.949 28.816 65.271 29.124C65.607 29.432 65.866 29.719 66.048 29.985L64.326 31.497C64.144 31.231 63.892 30.937 63.57 30.615C63.262 30.279 62.926 29.95 62.562 29.628C62.198 29.306 61.834 29.019 61.47 28.767ZM68.757 27.507L70.794 27.129C71.018 27.437 71.235 27.787 71.445 28.179C71.655 28.557 71.802 28.9 71.886 29.208L69.744 29.628C69.66 29.348 69.52 29.012 69.324 28.62C69.142 28.214 68.953 27.843 68.757 27.507ZM70.311 34.038V34.689H75.96V34.038H70.311ZM70.311 35.76V36.432H75.96V35.76H70.311ZM70.311 32.358V32.967H75.96V32.358H70.311ZM67.98 31.245H78.396V37.524H67.98V31.245ZM65.691 32.379V37.314H63.423V34.269H60.966V32.379H65.691ZM71.928 29.586L74.427 29.754C74.259 30.146 74.098 30.51 73.944 30.846C73.804 31.182 73.678 31.476 73.566 31.728L71.571 31.476C71.655 31.168 71.725 30.846 71.781 30.51C71.851 30.16 71.9 29.852 71.928 29.586ZM75.561 27.108L77.934 27.486C77.682 27.892 77.43 28.27 77.178 28.62C76.94 28.956 76.723 29.25 76.527 29.502L74.532 29.124C74.714 28.816 74.896 28.48 75.078 28.116C75.274 27.738 75.435 27.402 75.561 27.108ZM65.691 36.474C66.041 37.048 66.531 37.468 67.161 37.734C67.791 38 68.554 38.147 69.45 38.175C69.968 38.189 70.577 38.203 71.277 38.217C71.991 38.231 72.754 38.238 73.566 38.238C74.378 38.224 75.197 38.21 76.023 38.196C76.849 38.168 77.64 38.14 78.396 38.112C79.166 38.07 79.845 38.035 80.433 38.007C80.321 38.231 80.202 38.539 80.076 38.931C79.95 39.309 79.859 39.638 79.803 39.918C79.131 39.946 78.34 39.974 77.43 40.002C76.52 40.016 75.575 40.03 74.595 40.044C73.615 40.044 72.677 40.044 71.781 40.044C70.885 40.03 70.108 40.009 69.45 39.981C68.386 39.939 67.483 39.785 66.741 39.519C66.013 39.239 65.39 38.77 64.872 38.112C64.368 38.448 63.85 38.784 63.318 39.12C62.8 39.456 62.247 39.806 61.659 40.17L60.798 38.175C61.288 37.951 61.813 37.692 62.373 37.398C62.947 37.09 63.493 36.782 64.011 36.474H65.691ZM85.809 28.326H91.773V30.888H85.809V28.326ZM90.534 28.326H93.138C93.138 28.998 93.166 29.761 93.222 30.615C93.278 31.455 93.397 32.358 93.579 33.324C93.761 34.276 94.034 35.256 94.398 36.264C94.762 37.272 95.245 38.273 95.847 39.267C96.463 40.247 97.233 41.192 98.157 42.102C99.081 43.012 100.187 43.852 101.475 44.622C101.293 44.762 101.069 44.965 100.803 45.231C100.537 45.497 100.278 45.77 100.026 46.05C99.788 46.344 99.592 46.603 99.438 46.827C98.122 46.015 96.981 45.105 96.015 44.097C95.049 43.075 94.237 41.997 93.579 40.863C92.921 39.715 92.389 38.56 91.983 37.398C91.577 36.222 91.269 35.081 91.059 33.975C90.849 32.855 90.709 31.812 90.639 30.846C90.569 29.88 90.534 29.04 90.534 28.326ZM89.631 32.946L92.508 33.471C92.032 35.543 91.395 37.426 90.597 39.12C89.799 40.814 88.84 42.305 87.72 43.593C86.614 44.881 85.333 45.966 83.877 46.848C83.723 46.666 83.506 46.442 83.226 46.176C82.946 45.924 82.652 45.665 82.344 45.399C82.05 45.147 81.791 44.944 81.567 44.79C83.765 43.684 85.515 42.13 86.817 40.128C88.119 38.112 89.057 35.718 89.631 32.946ZM111.177 27.192H113.781V30.531H111.177V27.192ZM103.491 28.998H121.488V33.513H118.884V31.203H105.99V33.513H103.491V28.998ZM105.381 32.883H119.808V34.92H105.381V32.883ZM103.323 39.519H121.782V41.703H103.323V39.519ZM105.717 36.18H119.367V38.196H105.717V36.18ZM113.739 39.96C114.369 41.346 115.37 42.431 116.742 43.215C118.114 43.999 119.892 44.503 122.076 44.727C121.824 44.993 121.551 45.343 121.257 45.777C120.977 46.211 120.753 46.596 120.585 46.932C118.989 46.68 117.61 46.281 116.448 45.735C115.286 45.203 114.299 44.503 113.487 43.635C112.689 42.753 112.024 41.689 111.492 40.443L113.739 39.96ZM111.114 31.686H113.655V37.524C113.655 38.252 113.578 38.98 113.424 39.708C113.284 40.436 113.018 41.143 112.626 41.829C112.248 42.501 111.709 43.145 111.009 43.761C110.323 44.377 109.448 44.944 108.384 45.462C107.32 45.994 106.025 46.47 104.499 46.89C104.401 46.694 104.261 46.47 104.079 46.218C103.911 45.98 103.722 45.735 103.512 45.483C103.316 45.231 103.12 45.021 102.924 44.853C104.38 44.517 105.598 44.139 106.578 43.719C107.572 43.299 108.363 42.844 108.951 42.354C109.553 41.864 110.008 41.353 110.316 40.821C110.624 40.275 110.834 39.729 110.946 39.183C111.058 38.623 111.114 38.056 111.114 37.482V31.686ZM135.915 27.15H138.435V33.87H135.915V27.15ZM131.673 28.137H142.824V29.649H131.673V28.137ZM132.177 30.363H142.32V31.833H132.177V30.363ZM131.148 32.547H143.244V34.122H131.148V32.547ZM134.718 38.679V39.582H139.842V38.679H134.718ZM134.718 41.031V41.934H139.842V41.031H134.718ZM134.718 36.369V37.251H139.842V36.369H134.718ZM132.471 34.815H142.215V43.488H132.471V34.815ZM137.868 44.433L139.548 43.236C140.01 43.488 140.486 43.768 140.976 44.076C141.48 44.384 141.956 44.685 142.404 44.979C142.852 45.259 143.237 45.504 143.559 45.714L141.354 46.911C141.102 46.701 140.78 46.449 140.388 46.155C139.996 45.875 139.583 45.581 139.149 45.273C138.715 44.965 138.288 44.685 137.868 44.433ZM134.802 43.131L136.755 44.412C136.335 44.748 135.838 45.077 135.264 45.399C134.69 45.735 134.088 46.036 133.458 46.302C132.842 46.568 132.247 46.792 131.673 46.974C131.491 46.75 131.246 46.484 130.938 46.176C130.644 45.882 130.371 45.623 130.119 45.399C130.693 45.245 131.274 45.042 131.862 44.79C132.45 44.524 133.003 44.251 133.521 43.971C134.039 43.677 134.466 43.397 134.802 43.131ZM126.759 27.171L128.943 27.948C128.663 28.494 128.369 29.054 128.061 29.628C127.753 30.188 127.452 30.734 127.158 31.266C126.864 31.784 126.584 32.239 126.318 32.631L124.638 31.938C124.89 31.504 125.149 31.014 125.415 30.468C125.681 29.922 125.933 29.355 126.171 28.767C126.423 28.179 126.619 27.647 126.759 27.171ZM129.132 29.67L131.19 30.594C130.672 31.378 130.112 32.204 129.51 33.072C128.908 33.94 128.306 34.773 127.704 35.571C127.102 36.369 126.528 37.069 125.982 37.671L124.533 36.873C124.925 36.397 125.331 35.865 125.751 35.277C126.185 34.675 126.605 34.052 127.011 33.408C127.431 32.75 127.823 32.099 128.187 31.455C128.551 30.811 128.866 30.216 129.132 29.67ZM123.525 32.085L124.764 30.384C125.114 30.72 125.478 31.084 125.856 31.476C126.234 31.868 126.584 32.26 126.906 32.652C127.228 33.044 127.466 33.408 127.62 33.744L126.276 35.655C126.122 35.319 125.891 34.941 125.583 34.521C125.289 34.101 124.96 33.681 124.596 33.261C124.232 32.827 123.875 32.435 123.525 32.085ZM128.544 34.626L130.329 33.912C130.595 34.388 130.847 34.892 131.085 35.424C131.337 35.956 131.554 36.481 131.736 36.999C131.932 37.503 132.072 37.958 132.156 38.364L130.245 39.204C130.175 38.798 130.049 38.336 129.867 37.818C129.699 37.286 129.496 36.747 129.258 36.201C129.034 35.641 128.796 35.116 128.544 34.626ZM123.462 36.369C124.4 36.327 125.506 36.271 126.78 36.201C128.054 36.117 129.349 36.033 130.665 35.949L130.707 38.007C129.461 38.119 128.215 38.217 126.969 38.301C125.737 38.385 124.624 38.469 123.63 38.553L123.462 36.369ZM129.048 39.897L130.812 39.351C131.064 39.925 131.288 40.562 131.484 41.262C131.68 41.962 131.813 42.557 131.883 43.047L130.014 43.677C129.958 43.159 129.839 42.55 129.657 41.85C129.489 41.136 129.286 40.485 129.048 39.897ZM124.365 39.498L126.381 39.855C126.269 40.863 126.101 41.857 125.877 42.837C125.667 43.803 125.415 44.622 125.121 45.294C124.981 45.196 124.799 45.091 124.575 44.979C124.351 44.867 124.12 44.762 123.882 44.664C123.644 44.552 123.441 44.468 123.273 44.412C123.581 43.782 123.819 43.026 123.987 42.144C124.155 41.262 124.281 40.38 124.365 39.498ZM126.654 37.503H128.838V46.89H126.654V37.503Z" fill="#222222"/>
<path d="M144.476 75.252H157.632V78.541H144.476V75.252ZM145.442 64.235H157.057V67.455H145.442V64.235ZM149.513 57.588H152.963V76.839H149.513V57.588ZM136.104 61.567H143.579V64.58H136.104V61.567ZM139.209 69.962L142.521 66.006V79.208H139.209V69.962ZM139.209 57.358H142.521V62.947H139.209V57.358ZM142.153 66.972C142.368 67.11 142.659 67.34 143.027 67.662C143.41 67.9687 143.809 68.306 144.223 68.674C144.652 69.042 145.036 69.387 145.373 69.709C145.726 70.0157 145.979 70.238 146.132 70.376L144.108 73.09C143.878 72.768 143.602 72.4077 143.28 72.009C142.973 71.595 142.644 71.181 142.291 70.767C141.938 70.3377 141.593 69.939 141.256 69.571C140.919 69.1877 140.62 68.858 140.359 68.582L142.153 66.972ZM142.383 61.567H143.027L143.602 61.452L145.465 62.671C144.882 64.2197 144.131 65.6917 143.211 67.087C142.306 68.4823 141.294 69.7397 140.175 70.859C139.071 71.9783 137.929 72.8983 136.748 73.619C136.656 73.3123 136.518 72.952 136.334 72.538C136.15 72.1087 135.958 71.7023 135.759 71.319C135.56 70.9203 135.376 70.6137 135.207 70.399C136.265 69.8623 137.262 69.1647 138.197 68.306C139.148 67.432 139.983 66.466 140.704 65.408C141.44 64.3347 142 63.246 142.383 62.142V61.567Z" fill="#A7AC50"/>
<path d="M140.344 83.912L141.964 83.132C142.22 83.42 142.468 83.736 142.708 84.08C142.956 84.424 143.176 84.764 143.368 85.1C143.568 85.436 143.728 85.744 143.848 86.024L142.132 86.948C142.036 86.668 141.892 86.352 141.7 86C141.508 85.64 141.292 85.28 141.052 84.92C140.82 84.552 140.584 84.216 140.344 83.912ZM136.48 89.876C136.896 89.748 137.372 89.588 137.908 89.396C138.444 89.196 139.008 88.98 139.6 88.748C140.192 88.516 140.776 88.284 141.352 88.052L141.76 89.768C141.24 90 140.708 90.232 140.164 90.464C139.62 90.696 139.084 90.92 138.556 91.136C138.036 91.352 137.544 91.556 137.08 91.748L136.48 89.876ZM143.416 89.084L144.76 87.836C145.024 88.124 145.312 88.436 145.624 88.772C145.944 89.1 146.256 89.436 146.56 89.78C146.872 90.124 147.16 90.46 147.424 90.788C147.688 91.108 147.904 91.404 148.072 91.676L146.584 93.14C146.432 92.86 146.232 92.548 145.984 92.204C145.736 91.868 145.464 91.52 145.168 91.16C144.88 90.8 144.584 90.444 144.28 90.092C143.976 89.732 143.688 89.396 143.416 89.084ZM145.036 82.472L146.98 82.64C146.844 83.984 146.64 85.204 146.368 86.3C146.104 87.396 145.744 88.376 145.288 89.24C144.84 90.104 144.28 90.86 143.608 91.508C142.936 92.156 142.124 92.704 141.172 93.152C141.092 93.024 140.968 92.86 140.8 92.66C140.632 92.468 140.456 92.272 140.272 92.072C140.088 91.872 139.924 91.712 139.78 91.592C140.692 91.24 141.46 90.792 142.084 90.248C142.708 89.704 143.22 89.056 143.62 88.304C144.02 87.552 144.332 86.692 144.556 85.724C144.78 84.756 144.94 83.672 145.036 82.472ZM137.788 82.52L139.636 82.448L139.936 90.176L138.1 90.248L137.788 82.52ZM153.424 85.184H158.452V86.948H153.424V85.184ZM148.228 90.776H159.304V92.54H148.228V90.776ZM152.44 81.872H154.324V91.76H152.44V81.872Z" fill="#A7AC50"/>
<path d="M70.6339 67.4961C68.7413 70.1855 67.1559 72.958 65.8776 75.8135C64.8649 78.0547 63.9518 80.7939 63.1383 84.0312C62.3248 87.2686 61.9181 89.9248 61.9181 92H54.547C54.7628 85.5254 56.8878 78.7935 60.922 71.8042C63.5284 67.4712 65.7115 64.4497 67.4713 62.7397H49.4669L49.5665 56.3647H75.0665V61.918C74.004 62.9639 72.5265 64.8232 70.6339 67.4961ZM90.0956 92.8965C85.497 92.8965 82.268 91.2861 80.4086 88.0654C78.5658 84.8447 77.6444 80.2544 77.6444 74.2944C77.6444 68.3345 78.5658 63.7358 80.4086 60.4985C82.268 57.2612 85.497 55.6426 90.0956 55.6426C94.6942 55.6426 97.9232 57.2612 99.7826 60.4985C101.625 63.7358 102.547 68.3345 102.547 74.2944C102.547 80.2544 101.617 84.8447 99.7577 88.0654C97.9149 91.2861 94.6942 92.8965 90.0956 92.8965ZM94.2543 83.8071C94.9017 81.6157 95.2255 78.4448 95.2255 74.2944C95.2255 69.9448 94.8934 66.7241 94.2294 64.6323C93.5819 62.5405 92.204 61.4946 90.0956 61.4946C87.9872 61.4946 86.5927 62.5405 85.912 64.6323C85.2313 66.7241 84.891 69.9448 84.891 74.2944C84.891 78.4448 85.2313 81.624 85.912 83.832C86.5927 86.0234 87.9872 87.1191 90.0956 87.1191C92.204 87.1191 93.5902 86.0151 94.2543 83.8071ZM118.484 92.8965C113.886 92.8965 110.657 91.2861 108.797 88.0654C106.954 84.8447 106.033 80.2544 106.033 74.2944C106.033 68.3345 106.954 63.7358 108.797 60.4985C110.657 57.2612 113.886 55.6426 118.484 55.6426C123.083 55.6426 126.312 57.2612 128.171 60.4985C130.014 63.7358 130.935 68.3345 130.935 74.2944C130.935 80.2544 130.006 84.8447 128.146 88.0654C126.304 91.2861 123.083 92.8965 118.484 92.8965ZM122.643 83.8071C123.29 81.6157 123.614 78.4448 123.614 74.2944C123.614 69.9448 123.282 66.7241 122.618 64.6323C121.971 62.5405 120.593 61.4946 118.484 61.4946C116.376 61.4946 114.981 62.5405 114.301 64.6323C113.62 66.7241 113.28 69.9448 113.28 74.2944C113.28 78.4448 113.62 81.624 114.301 83.832C114.981 86.0234 116.376 87.1191 118.484 87.1191C120.593 87.1191 121.979 86.0151 122.643 83.8071Z" fill="#A7AC50"/>
</svg>
