<svg xmlns="http://www.w3.org/2000/svg" width="195" height="44" fill="none"><path fill="#00A8B0" d="M22.791 1.966 11.266 23.282l24.41-13.985L22.79 1.966Z"/><path fill="#05BAC2" d="M11.266 23.281 22.792 1.966 19.337 0 5.441 7.913"/><path fill="#04B5B7" d="M5.441 7.913 0 11v7.025l11.266 5.256L5.44 7.913Z"/><path fill="#02ADB5" d="M0 18.025v7.492l11.266-2.235L0 18.025Z"/><path fill="#009696" d="M0 25.502V33l.795.451 10.47-10.17L0 25.501Z"/><path fill="#05ADA8" d="M11.266 23.281.795 33.451 19.337 44l1.532-.874-9.603-19.845Z"/><path fill="#00AAB1" d="m11.266 23.281 27.401 1.82V33l-10.68 6.079L11.266 23.28Z"/><path fill="#05B7B7" d="m35.676 9.296-24.41 13.985 27.401 1.82V11l-2.991-1.704Z"/><path fill="#05BAC2" d="m20.87 43.126 7.117-4.047L11.266 23.28l9.603 19.845Z"/><path fill="#fff" d="m35.199 13.927-14.417 8.212v10.65l10.428-5.882v1.565l-10.428 5.882v4.536L35.2 30.685V20.057l-10.42 6.064v-1.595l10.42-6.064v-4.535Z"/><path fill="#2A9CA1" d="m173.076 19.277 3.273 7.258 3.411-7.258h3.035l3.411 7.47 3.44-7.47H195l-7.139 13.789h-3.223l-3.411-7.55-3.252 7.55h-3.273l-7.01-13.789h5.384ZM154.8 25.75c0 .465.08.895.239 1.288.18.378.397.706.664.997.282.284.615.51.983.67.39.16.802.24 1.229.24.426 0 .823-.08 1.199-.24.39-.16.723-.386.983-.67.282-.284.506-.619.665-.997.18-.393.267-.816.267-1.267 0-.451-.087-.83-.267-1.208a3.064 3.064 0 0 0-.665-1.02 2.781 2.781 0 0 0-.983-.67 3.02 3.02 0 0 0-1.199-.24c-.427 0-.839.08-1.229.24-.376.16-.701.387-.983.67a3.685 3.685 0 0 0-.664.998 3.08 3.08 0 0 0-.239 1.208Zm-5.087-.059c0-1.02.202-1.973.614-2.846a6.818 6.818 0 0 1 1.706-2.308c.729-.663 1.589-1.18 2.586-1.558 1.012-.379 2.118-.568 3.303-.568s2.254.19 3.252.568c1.011.357 1.886.866 2.608 1.529a6.745 6.745 0 0 1 1.735 2.337c.412.895.614 1.892.614 2.984s-.21 2.097-.636 3.007a7.164 7.164 0 0 1-1.705 2.337c-.73.648-1.605 1.143-2.638 1.507-1.012.357-2.11.538-3.302.538-1.193 0-2.255-.181-3.252-.538a7.614 7.614 0 0 1-2.587-1.529 7.179 7.179 0 0 1-1.677-2.366c-.412-.932-.614-1.958-.614-3.094h-.007ZM126.191 33.066v-20.26h5.225l9.647 12.39v-12.39h5.196v20.26h-5.196l-9.647-12.39v12.39h-5.225ZM120.685 22.495c-.888-.466-1.755-.7-2.608-.7-.441 0-.81.088-1.091.27-.268.182-.398.423-.398.728 0 .16.022.299.051.4.05.088.152.183.296.27.159.087.383.168.665.24.303.073.694.16 1.171.27 1.329.269 2.326.75 2.984 1.448.658.685.983 1.558.983 2.636 0 .808-.159 1.529-.477 2.176a4.705 4.705 0 0 1-1.33 1.638c-.571.43-1.25.765-2.052.998a8.888 8.888 0 0 1-2.638.378c-1.85 0-3.663-.531-5.463-1.587l1.756-3.443c1.352.932 2.631 1.398 3.837 1.398.448 0 .81-.102 1.092-.299.281-.196.426-.451.426-.75 0-.182-.029-.32-.08-.43a.558.558 0 0 0-.267-.32c-.144-.109-.354-.196-.643-.269a9.294 9.294 0 0 0-1.062-.27c-1.496-.305-2.537-.75-3.144-1.346-.585-.611-.881-1.442-.881-2.497 0-.772.144-1.463.426-2.068a4.26 4.26 0 0 1 1.228-1.587 5.78 5.78 0 0 1 1.915-.997c.766-.233 1.605-.35 2.53-.35 1.51 0 2.977.3 4.393.889l-1.626 3.174h.007ZM103.942 23.834c-.159-.684-.492-1.23-.983-1.638-.499-.415-1.098-.618-1.814-.618-.744 0-1.358.196-1.835.59-.463.392-.752.946-.882 1.666h5.514Zm-5.651 2.825c0 2.097.975 3.145 2.934 3.145 1.047 0 1.835-.43 2.37-1.289h4.661c-.94 3.153-3.295 4.732-7.06 4.732-1.156 0-2.212-.167-3.173-.51a7.304 7.304 0 0 1-2.478-1.506 6.845 6.845 0 0 1-1.576-2.308c-.375-.895-.556-1.9-.556-3.006 0-1.107.18-2.177.535-3.095a6.516 6.516 0 0 1 1.517-2.366c.658-.647 1.446-1.135 2.37-1.477.94-.357 1.995-.54 3.173-.54s2.197.183 3.114.54c.925.342 1.706.844 2.342 1.507.636.662 1.127 1.477 1.467 2.446.339.946.505 2.024.505 3.225v.51H98.284l.007-.008ZM90.024 10.76v22.306h-4.82V10.76h4.82ZM70.825 25.88c0 .451.08.866.238 1.267.159.378.376.706.636.997.282.284.614.51.983.67.39.16.81.24 1.25.24.44 0 .824-.08 1.2-.24.39-.16.722-.386.982-.67.282-.284.506-.619.665-.997a2.76 2.76 0 0 0 .267-1.209c0-.43-.086-.83-.267-1.208a3.066 3.066 0 0 0-.665-1.02 2.781 2.781 0 0 0-.983-.67 3.018 3.018 0 0 0-1.2-.24c-.425 0-.86.08-1.25.24-.375.161-.7.387-.982.67a3.304 3.304 0 0 0-.636.998c-.159.357-.238.75-.238 1.18v-.008Zm6.07-6.85h4.848v13.788h-4.848v-1.529c-1.034 1.31-2.421 1.958-4.184 1.958a6.925 6.925 0 0 1-2.746-.538 6.781 6.781 0 0 1-2.183-1.558 7.31 7.31 0 0 1-1.467-2.337c-.34-.895-.505-1.871-.505-2.927a7.7 7.7 0 0 1 .505-2.795c.34-.896.81-1.674 1.41-2.337a6.538 6.538 0 0 1 2.16-1.558c.838-.393 1.756-.59 2.768-.59 1.705 0 3.114.597 4.234 1.799v-1.37l.008-.006ZM60.216 17.603c-.57-.466-1.135-.808-1.705-1.02-.571-.232-1.12-.349-1.655-.349-.672 0-1.229.16-1.655.48-.426.32-.636.743-.636 1.267 0 .357.109.655.318.888.21.233.491.437.824.62.354.16.744.305 1.17.429.441.123.882.262 1.308.4 1.706.575 2.949 1.347 3.73 2.308.801.946 1.199 2.191 1.199 3.734 0 1.041-.18 1.98-.535 2.825a5.858 5.858 0 0 1-1.517 2.177c-.658.59-1.475 1.048-2.45 1.368-.961.343-2.052.51-3.274.51-2.536 0-4.892-.764-7.06-2.286l2.24-4.244c.78.699 1.554 1.216 2.32 1.558.766.342 1.518.51 2.262.51.853 0 1.481-.197 1.893-.59.426-.393.636-.845.636-1.347 0-.306-.05-.568-.159-.779a1.585 1.585 0 0 0-.535-.619c-.245-.196-.578-.378-.982-.539-.39-.16-.868-.342-1.438-.538a46.464 46.464 0 0 1-2.002-.7 6.992 6.992 0 0 1-1.734-1.047c-.499-.43-.904-.969-1.229-1.617-.303-.662-.455-1.492-.455-2.497 0-1.004.159-1.907.477-2.715a6.23 6.23 0 0 1 1.387-2.097 6.23 6.23 0 0 1 2.183-1.368c.867-.32 1.835-.48 2.904-.48.998 0 2.031.145 3.115.429a13.1 13.1 0 0 1 3.115 1.208l-2.082 4.113.022.008Z"/></svg>